G04 #@! TF.GenerationSoftware,KiCad,Pcbnew,9.0.0*
G04 #@! TF.CreationDate,2025-06-17T18:49:07+02:00*
G04 #@! TF.ProjectId,SlipSensor_HW,536c6970-5365-46e7-936f-725f48572e6b,rev?*
G04 #@! TF.SameCoordinates,Original*
G04 #@! TF.FileFunction,Copper,L2,Bot*
G04 #@! TF.FilePolarity,Positive*
%FSLAX46Y46*%
G04 Gerber Fmt 4.6, Leading zero omitted, Abs format (unit mm)*
G04 Created by KiCad (PCBNEW 9.0.0) date 2025-06-17 18:49:07*
%MOMM*%
%LPD*%
G01*
G04 APERTURE LIST*
G04 #@! TA.AperFunction,ComponentPad*
%ADD10C,1.524000*%
G04 #@! TD*
G04 #@! TA.AperFunction,ComponentPad*
%ADD11C,1.800000*%
G04 #@! TD*
G04 #@! TA.AperFunction,ViaPad*
%ADD12C,0.800000*%
G04 #@! TD*
G04 #@! TA.AperFunction,Conductor*
%ADD13C,0.250000*%
G04 #@! TD*
G04 APERTURE END LIST*
D10*
X128452500Y-68587500D03*
X125912500Y-68587500D03*
X123372500Y-68587500D03*
D11*
X135202500Y-80200000D03*
X132202500Y-80200000D03*
X135202500Y-77200000D03*
X132202500Y-77200000D03*
D10*
X128405000Y-59587500D03*
X125865000Y-59587500D03*
X123325000Y-59587500D03*
D11*
X124452500Y-80250000D03*
X121452500Y-80250000D03*
X118452500Y-80250000D03*
X124452500Y-77250000D03*
X121452500Y-77250000D03*
X118452500Y-77250000D03*
D12*
X127400000Y-77500000D03*
X126000000Y-70750000D03*
X130700000Y-62400000D03*
X106020000Y-64370000D03*
X129590000Y-79360000D03*
X137110000Y-85070000D03*
X130610000Y-84900000D03*
X125490000Y-85210000D03*
X116980000Y-84930000D03*
X108440000Y-72690000D03*
X110830000Y-72720000D03*
X125952500Y-62400000D03*
X126000000Y-64400000D03*
X123910000Y-64400000D03*
X121510000Y-62250000D03*
X127600000Y-72000000D03*
X123940000Y-62340000D03*
X128300000Y-62400000D03*
X129700000Y-73700000D03*
X114600000Y-56900000D03*
X112400000Y-64200000D03*
X105800000Y-72900000D03*
X110400000Y-80500000D03*
X115500000Y-66200000D03*
X121510000Y-64460000D03*
X114700000Y-75100000D03*
X135700000Y-62900000D03*
X113400000Y-84100000D03*
X113800000Y-78300000D03*
X131700000Y-74900000D03*
X119800000Y-57200000D03*
X114500000Y-67000000D03*
X108920444Y-65670444D03*
D13*
X115000000Y-67500000D02*
X115000000Y-73797500D01*
X115000000Y-73797500D02*
X118452500Y-77250000D01*
X114500000Y-67000000D02*
X115000000Y-67500000D01*
X108920444Y-65670444D02*
X109079556Y-65670444D01*
X109500000Y-65250000D02*
X117750500Y-65250000D01*
X117750500Y-65250000D02*
X129700500Y-77200000D01*
X129700500Y-77200000D02*
X132202500Y-77200000D01*
X109079556Y-65670444D02*
X109500000Y-65250000D01*
G04 #@! TA.AperFunction,Conductor*
G36*
X120977255Y-77446853D02*
G01*
X121044398Y-77563147D01*
X121139353Y-77658102D01*
X121255647Y-77725245D01*
X121314924Y-77741128D01*
X120654985Y-78401065D01*
X120654985Y-78401066D01*
X120718743Y-78447388D01*
X120915089Y-78547432D01*
X121124664Y-78615526D01*
X121200430Y-78627527D01*
X121263565Y-78657456D01*
X121300496Y-78716768D01*
X121299498Y-78786630D01*
X121260888Y-78844863D01*
X121200430Y-78872473D01*
X121124664Y-78884473D01*
X120915089Y-78952567D01*
X120718733Y-79052616D01*
X120654985Y-79098931D01*
X120654985Y-79098932D01*
X121314924Y-79758871D01*
X121255647Y-79774755D01*
X121139353Y-79841898D01*
X121044398Y-79936853D01*
X120977255Y-80053147D01*
X120961371Y-80112424D01*
X120301432Y-79452485D01*
X120301431Y-79452485D01*
X120255116Y-79516233D01*
X120155067Y-79712589D01*
X120086973Y-79922164D01*
X120075226Y-79996331D01*
X120045297Y-80059466D01*
X119985985Y-80096397D01*
X119916122Y-80095399D01*
X119857890Y-80056789D01*
X119830280Y-79996330D01*
X119818515Y-79922048D01*
X119750396Y-79712396D01*
X119750395Y-79712393D01*
X119715737Y-79644375D01*
X119650315Y-79515978D01*
X119567858Y-79402485D01*
X119520747Y-79337641D01*
X119520743Y-79337636D01*
X119364863Y-79181756D01*
X119364858Y-79181752D01*
X119186525Y-79052187D01*
X119186524Y-79052186D01*
X119186522Y-79052185D01*
X119123596Y-79020122D01*
X118990106Y-78952104D01*
X118990103Y-78952103D01*
X118780452Y-78883985D01*
X118725934Y-78875350D01*
X118707766Y-78872472D01*
X118644633Y-78842544D01*
X118607701Y-78783233D01*
X118608699Y-78713370D01*
X118647309Y-78655137D01*
X118707767Y-78627527D01*
X118780451Y-78616015D01*
X118990106Y-78547895D01*
X119186522Y-78447815D01*
X119364865Y-78318242D01*
X119520742Y-78162365D01*
X119650315Y-77984022D01*
X119750395Y-77787606D01*
X119818515Y-77577951D01*
X119830280Y-77503668D01*
X119860209Y-77440534D01*
X119919520Y-77403602D01*
X119989383Y-77404600D01*
X120047616Y-77443209D01*
X120075226Y-77503668D01*
X120086973Y-77577835D01*
X120155067Y-77787410D01*
X120255111Y-77983756D01*
X120301432Y-78047513D01*
X120961371Y-77387574D01*
X120977255Y-77446853D01*
G37*
G04 #@! TD.AperFunction*
G04 #@! TA.AperFunction,Conductor*
G36*
X122603566Y-78047514D02*
G01*
X122603566Y-78047513D01*
X122649886Y-77983760D01*
X122749932Y-77787410D01*
X122818025Y-77577840D01*
X122829772Y-77503669D01*
X122859701Y-77440534D01*
X122919012Y-77403603D01*
X122988875Y-77404599D01*
X123047108Y-77443209D01*
X123074719Y-77503667D01*
X123086485Y-77577952D01*
X123154603Y-77787603D01*
X123154604Y-77787606D01*
X123183943Y-77845185D01*
X123254549Y-77983756D01*
X123254687Y-77984025D01*
X123384252Y-78162358D01*
X123384256Y-78162363D01*
X123540136Y-78318243D01*
X123540141Y-78318247D01*
X123649654Y-78397812D01*
X123718478Y-78447815D01*
X123846875Y-78513237D01*
X123914893Y-78547895D01*
X123914896Y-78547896D01*
X124124548Y-78616015D01*
X124198830Y-78627780D01*
X124261965Y-78657709D01*
X124298897Y-78717020D01*
X124297899Y-78786883D01*
X124259290Y-78845116D01*
X124198831Y-78872726D01*
X124124664Y-78884473D01*
X123915089Y-78952567D01*
X123718733Y-79052616D01*
X123654985Y-79098931D01*
X123654985Y-79098932D01*
X124314924Y-79758871D01*
X124255647Y-79774755D01*
X124139353Y-79841898D01*
X124044398Y-79936853D01*
X123977255Y-80053147D01*
X123961371Y-80112424D01*
X123301432Y-79452485D01*
X123301431Y-79452485D01*
X123255116Y-79516233D01*
X123155067Y-79712589D01*
X123086973Y-79922164D01*
X123074973Y-79997930D01*
X123045044Y-80061065D01*
X122985732Y-80097996D01*
X122915870Y-80096998D01*
X122857637Y-80058388D01*
X122830027Y-79997930D01*
X122818026Y-79922164D01*
X122749932Y-79712589D01*
X122649888Y-79516243D01*
X122603566Y-79452485D01*
X122603565Y-79452485D01*
X121943627Y-80112423D01*
X121927745Y-80053147D01*
X121860602Y-79936853D01*
X121765647Y-79841898D01*
X121649353Y-79774755D01*
X121590073Y-79758871D01*
X122250013Y-79098932D01*
X122186256Y-79052611D01*
X121989910Y-78952567D01*
X121780335Y-78884473D01*
X121704569Y-78872473D01*
X121641435Y-78842544D01*
X121604503Y-78783233D01*
X121605501Y-78713370D01*
X121644111Y-78655137D01*
X121704569Y-78627527D01*
X121780335Y-78615526D01*
X121989910Y-78547432D01*
X122186260Y-78447386D01*
X122250013Y-78401066D01*
X122250014Y-78401066D01*
X121590075Y-77741128D01*
X121649353Y-77725245D01*
X121765647Y-77658102D01*
X121860602Y-77563147D01*
X121927745Y-77446853D01*
X121943627Y-77387575D01*
X122603566Y-78047514D01*
G37*
G04 #@! TD.AperFunction*
G04 #@! TA.AperFunction,Conductor*
G36*
X133739130Y-77356199D02*
G01*
X133797363Y-77394809D01*
X133824973Y-77455267D01*
X133836485Y-77527952D01*
X133904603Y-77737603D01*
X133904604Y-77737606D01*
X133959420Y-77845185D01*
X133983887Y-77893205D01*
X134004687Y-77934025D01*
X134134252Y-78112358D01*
X134134256Y-78112363D01*
X134290136Y-78268243D01*
X134290141Y-78268247D01*
X134358961Y-78318247D01*
X134468478Y-78397815D01*
X134596875Y-78463237D01*
X134664893Y-78497895D01*
X134664896Y-78497896D01*
X134874548Y-78566015D01*
X134948830Y-78577780D01*
X135011965Y-78607709D01*
X135048897Y-78667020D01*
X135047899Y-78736883D01*
X135009290Y-78795116D01*
X134948831Y-78822726D01*
X134874664Y-78834473D01*
X134665089Y-78902567D01*
X134468733Y-79002616D01*
X134404985Y-79048931D01*
X134404985Y-79048932D01*
X135064924Y-79708871D01*
X135005647Y-79724755D01*
X134889353Y-79791898D01*
X134794398Y-79886853D01*
X134727255Y-80003147D01*
X134711371Y-80062424D01*
X134051432Y-79402485D01*
X134051431Y-79402485D01*
X134005116Y-79466233D01*
X133905067Y-79662589D01*
X133836973Y-79872164D01*
X133825226Y-79946331D01*
X133795297Y-80009466D01*
X133735985Y-80046397D01*
X133666122Y-80045399D01*
X133607890Y-80006789D01*
X133580280Y-79946330D01*
X133568515Y-79872048D01*
X133500396Y-79662396D01*
X133500395Y-79662393D01*
X133465737Y-79594375D01*
X133400315Y-79465978D01*
X133354185Y-79402485D01*
X133270747Y-79287641D01*
X133270743Y-79287636D01*
X133114863Y-79131756D01*
X133114858Y-79131752D01*
X132936525Y-79002187D01*
X132936524Y-79002186D01*
X132936522Y-79002185D01*
X132873596Y-78970122D01*
X132740106Y-78902104D01*
X132740103Y-78902103D01*
X132530452Y-78833985D01*
X132475934Y-78825350D01*
X132457766Y-78822472D01*
X132394633Y-78792544D01*
X132357701Y-78733233D01*
X132358699Y-78663370D01*
X132397309Y-78605137D01*
X132457767Y-78577527D01*
X132530451Y-78566015D01*
X132740106Y-78497895D01*
X132936522Y-78397815D01*
X133114865Y-78268242D01*
X133270742Y-78112365D01*
X133400315Y-77934022D01*
X133500395Y-77737606D01*
X133568515Y-77527951D01*
X133580027Y-77455266D01*
X133609956Y-77392133D01*
X133669267Y-77355201D01*
X133739130Y-77356199D01*
G37*
G04 #@! TD.AperFunction*
G04 #@! TA.AperFunction,Conductor*
G36*
X137003471Y-56400695D02*
G01*
X137041470Y-56402828D01*
X137284106Y-56416454D01*
X137297909Y-56418010D01*
X137571584Y-56464509D01*
X137585123Y-56467599D01*
X137851874Y-56544449D01*
X137864993Y-56549040D01*
X138121445Y-56655265D01*
X138133967Y-56661294D01*
X138320623Y-56764456D01*
X138376921Y-56795571D01*
X138388695Y-56802969D01*
X138615081Y-56963598D01*
X138625953Y-56972268D01*
X138832931Y-57157235D01*
X138842764Y-57167068D01*
X139027731Y-57374046D01*
X139036401Y-57384918D01*
X139197030Y-57611304D01*
X139204428Y-57623078D01*
X139338701Y-57866025D01*
X139344734Y-57878554D01*
X139450959Y-58135006D01*
X139455552Y-58148130D01*
X139532397Y-58414865D01*
X139535491Y-58428422D01*
X139581988Y-58702082D01*
X139583545Y-58715900D01*
X139599305Y-58996527D01*
X139599500Y-59003480D01*
X139599500Y-86746519D01*
X139599305Y-86753472D01*
X139583545Y-87034099D01*
X139581988Y-87047917D01*
X139535491Y-87321577D01*
X139532397Y-87335134D01*
X139455552Y-87601869D01*
X139450959Y-87614993D01*
X139344734Y-87871445D01*
X139338701Y-87883974D01*
X139204428Y-88126921D01*
X139197030Y-88138695D01*
X139036401Y-88365081D01*
X139027731Y-88375953D01*
X138842764Y-88582931D01*
X138832931Y-88592764D01*
X138625953Y-88777731D01*
X138615081Y-88786401D01*
X138388695Y-88947030D01*
X138376921Y-88954428D01*
X138133974Y-89088701D01*
X138121445Y-89094734D01*
X137864993Y-89200959D01*
X137851869Y-89205552D01*
X137585134Y-89282397D01*
X137571577Y-89285491D01*
X137297917Y-89331988D01*
X137284099Y-89333545D01*
X137003472Y-89349305D01*
X136996519Y-89349500D01*
X107003481Y-89349500D01*
X106996528Y-89349305D01*
X106715900Y-89333545D01*
X106702082Y-89331988D01*
X106428422Y-89285491D01*
X106414865Y-89282397D01*
X106148130Y-89205552D01*
X106135006Y-89200959D01*
X105878554Y-89094734D01*
X105866025Y-89088701D01*
X105623078Y-88954428D01*
X105611304Y-88947030D01*
X105384918Y-88786401D01*
X105374046Y-88777731D01*
X105167068Y-88592764D01*
X105157235Y-88582931D01*
X104972268Y-88375953D01*
X104963598Y-88365081D01*
X104802969Y-88138695D01*
X104795571Y-88126921D01*
X104709011Y-87970303D01*
X104661294Y-87883967D01*
X104655265Y-87871445D01*
X104549040Y-87614993D01*
X104544447Y-87601869D01*
X104467599Y-87335123D01*
X104464508Y-87321577D01*
X104457493Y-87280289D01*
X104418010Y-87047909D01*
X104416454Y-87034106D01*
X104400695Y-86753471D01*
X104400500Y-86746519D01*
X104400500Y-86128711D01*
X106649500Y-86128711D01*
X106649500Y-86371288D01*
X106681161Y-86611785D01*
X106743947Y-86846104D01*
X106827541Y-87047917D01*
X106836776Y-87070212D01*
X106958064Y-87280289D01*
X106958066Y-87280292D01*
X106958067Y-87280293D01*
X107105733Y-87472736D01*
X107105739Y-87472743D01*
X107277256Y-87644260D01*
X107277262Y-87644265D01*
X107469711Y-87791936D01*
X107679788Y-87913224D01*
X107903900Y-88006054D01*
X108138211Y-88068838D01*
X108318586Y-88092584D01*
X108378711Y-88100500D01*
X108378712Y-88100500D01*
X108621289Y-88100500D01*
X108669388Y-88094167D01*
X108861789Y-88068838D01*
X109096100Y-88006054D01*
X109320212Y-87913224D01*
X109530289Y-87791936D01*
X109722738Y-87644265D01*
X109894265Y-87472738D01*
X110041936Y-87280289D01*
X110163224Y-87070212D01*
X110256054Y-86846100D01*
X110318838Y-86611789D01*
X110350500Y-86371288D01*
X110350500Y-86128712D01*
X110318838Y-85888211D01*
X110256054Y-85653900D01*
X110163224Y-85429788D01*
X110041936Y-85219711D01*
X109894265Y-85027262D01*
X109894260Y-85027256D01*
X109722743Y-84855739D01*
X109722736Y-84855733D01*
X109530293Y-84708067D01*
X109530292Y-84708066D01*
X109530289Y-84708064D01*
X109320212Y-84586776D01*
X109320200Y-84586770D01*
X109221211Y-84545768D01*
X109221210Y-84545768D01*
X109096104Y-84493947D01*
X108978944Y-84462554D01*
X108877075Y-84435258D01*
X119702000Y-84435258D01*
X119702000Y-84664741D01*
X119726946Y-84854215D01*
X119731952Y-84892238D01*
X119777945Y-85063887D01*
X119791342Y-85113887D01*
X119879150Y-85325876D01*
X119879157Y-85325890D01*
X119939146Y-85429794D01*
X119965024Y-85474617D01*
X119993892Y-85524617D01*
X120133581Y-85706661D01*
X120133589Y-85706670D01*
X120295830Y-85868911D01*
X120295838Y-85868918D01*
X120477882Y-86008607D01*
X120477885Y-86008608D01*
X120477888Y-86008611D01*
X120676612Y-86123344D01*
X120676617Y-86123346D01*
X120676623Y-86123349D01*
X120689571Y-86128712D01*
X120888613Y-86211158D01*
X121110262Y-86270548D01*
X121337766Y-86300500D01*
X121337773Y-86300500D01*
X121567227Y-86300500D01*
X121567234Y-86300500D01*
X121794738Y-86270548D01*
X122016387Y-86211158D01*
X122228388Y-86123344D01*
X122427112Y-86008611D01*
X122609161Y-85868919D01*
X122609165Y-85868914D01*
X122609170Y-85868911D01*
X122771411Y-85706670D01*
X122771414Y-85706665D01*
X122771419Y-85706661D01*
X122911111Y-85524612D01*
X123025844Y-85325888D01*
X123113658Y-85113887D01*
X123173048Y-84892238D01*
X123203000Y-84664734D01*
X123203000Y-84435266D01*
X123196416Y-84385258D01*
X131952000Y-84385258D01*
X131952000Y-84614741D01*
X131976946Y-84804215D01*
X131981952Y-84842238D01*
X132031529Y-85027263D01*
X132041342Y-85063887D01*
X132129150Y-85275876D01*
X132129157Y-85275890D01*
X132243892Y-85474617D01*
X132383581Y-85656661D01*
X132383589Y-85656670D01*
X132545830Y-85818911D01*
X132545838Y-85818918D01*
X132727882Y-85958607D01*
X132727885Y-85958608D01*
X132727888Y-85958611D01*
X132926612Y-86073344D01*
X132926617Y-86073346D01*
X132926623Y-86073349D01*
X133017980Y-86111190D01*
X133138613Y-86161158D01*
X133360262Y-86220548D01*
X133587766Y-86250500D01*
X133587773Y-86250500D01*
X133817227Y-86250500D01*
X133817234Y-86250500D01*
X134044738Y-86220548D01*
X134266387Y-86161158D01*
X134478388Y-86073344D01*
X134677112Y-85958611D01*
X134859161Y-85818919D01*
X134859165Y-85818914D01*
X134859170Y-85818911D01*
X135021411Y-85656670D01*
X135021414Y-85656665D01*
X135021419Y-85656661D01*
X135161111Y-85474612D01*
X135275844Y-85275888D01*
X135363658Y-85063887D01*
X135423048Y-84842238D01*
X135453000Y-84614734D01*
X135453000Y-84385266D01*
X135423048Y-84157762D01*
X135363658Y-83936113D01*
X135313690Y-83815480D01*
X135275849Y-83724123D01*
X135275846Y-83724117D01*
X135275844Y-83724112D01*
X135161111Y-83525388D01*
X135161108Y-83525385D01*
X135161107Y-83525382D01*
X135021418Y-83343338D01*
X135021411Y-83343330D01*
X134859170Y-83181089D01*
X134859161Y-83181081D01*
X134677117Y-83041392D01*
X134478390Y-82926657D01*
X134478376Y-82926650D01*
X134266387Y-82838842D01*
X134231346Y-82829453D01*
X134044738Y-82779452D01*
X134006715Y-82774446D01*
X133817241Y-82749500D01*
X133817234Y-82749500D01*
X133587766Y-82749500D01*
X133587758Y-82749500D01*
X133371215Y-82778009D01*
X133360262Y-82779452D01*
X133285441Y-82799500D01*
X133138612Y-82838842D01*
X132926623Y-82926650D01*
X132926609Y-82926657D01*
X132727882Y-83041392D01*
X132545838Y-83181081D01*
X132383581Y-83343338D01*
X132243892Y-83525382D01*
X132129157Y-83724109D01*
X132129150Y-83724123D01*
X132041342Y-83936112D01*
X131981953Y-84157759D01*
X131981951Y-84157770D01*
X131952000Y-84385258D01*
X123196416Y-84385258D01*
X123173048Y-84207762D01*
X123113658Y-83986113D01*
X123025844Y-83774112D01*
X122911111Y-83575388D01*
X122911108Y-83575385D01*
X122911107Y-83575382D01*
X122771418Y-83393338D01*
X122771411Y-83393330D01*
X122609170Y-83231089D01*
X122609161Y-83231081D01*
X122427117Y-83091392D01*
X122228390Y-82976657D01*
X122228376Y-82976650D01*
X122016387Y-82888842D01*
X121794738Y-82829452D01*
X121756715Y-82824446D01*
X121567241Y-82799500D01*
X121567234Y-82799500D01*
X121337766Y-82799500D01*
X121337758Y-82799500D01*
X121121215Y-82828009D01*
X121110262Y-82829452D01*
X121075218Y-82838842D01*
X120888612Y-82888842D01*
X120676623Y-82976650D01*
X120676609Y-82976657D01*
X120477882Y-83091392D01*
X120295838Y-83231081D01*
X120133581Y-83393338D01*
X119993892Y-83575382D01*
X119879157Y-83774109D01*
X119879150Y-83774123D01*
X119791342Y-83986112D01*
X119731953Y-84207759D01*
X119731951Y-84207770D01*
X119702000Y-84435258D01*
X108877075Y-84435258D01*
X108861789Y-84431162D01*
X108861788Y-84431161D01*
X108861785Y-84431161D01*
X108621289Y-84399500D01*
X108621288Y-84399500D01*
X108378712Y-84399500D01*
X108378711Y-84399500D01*
X108138214Y-84431161D01*
X107903895Y-84493947D01*
X107679794Y-84586773D01*
X107679785Y-84586777D01*
X107469706Y-84708067D01*
X107277263Y-84855733D01*
X107277256Y-84855739D01*
X107105739Y-85027256D01*
X107105733Y-85027263D01*
X106958067Y-85219706D01*
X106836777Y-85429785D01*
X106836773Y-85429794D01*
X106743947Y-85653895D01*
X106681161Y-85888214D01*
X106649500Y-86128711D01*
X104400500Y-86128711D01*
X104400500Y-65581748D01*
X108019944Y-65581748D01*
X108019944Y-65759139D01*
X108054547Y-65933102D01*
X108054550Y-65933111D01*
X108122427Y-66096984D01*
X108122434Y-66096997D01*
X108220979Y-66244478D01*
X108220982Y-66244482D01*
X108346405Y-66369905D01*
X108346409Y-66369908D01*
X108493890Y-66468453D01*
X108493903Y-66468460D01*
X108616807Y-66519367D01*
X108657778Y-66536338D01*
X108657780Y-66536338D01*
X108657785Y-66536340D01*
X108831748Y-66570943D01*
X108831751Y-66570944D01*
X108831753Y-66570944D01*
X109009137Y-66570944D01*
X109009138Y-66570943D01*
X109067126Y-66559408D01*
X109183102Y-66536340D01*
X109183105Y-66536338D01*
X109183110Y-66536338D01*
X109346991Y-66468457D01*
X109494479Y-66369908D01*
X109619908Y-66244479D01*
X109718457Y-66096991D01*
X109778494Y-65952048D01*
X109822334Y-65897644D01*
X109888628Y-65875579D01*
X109893055Y-65875500D01*
X114278440Y-65875500D01*
X114345479Y-65895185D01*
X114391234Y-65947989D01*
X114401178Y-66017147D01*
X114372153Y-66080703D01*
X114313375Y-66118477D01*
X114302631Y-66121117D01*
X114237341Y-66134103D01*
X114237332Y-66134106D01*
X114073459Y-66201983D01*
X114073446Y-66201990D01*
X113925965Y-66300535D01*
X113925961Y-66300538D01*
X113800538Y-66425961D01*
X113800535Y-66425965D01*
X113701990Y-66573446D01*
X113701983Y-66573459D01*
X113634106Y-66737332D01*
X113634103Y-66737341D01*
X113599500Y-66911304D01*
X113599500Y-67088695D01*
X113634103Y-67262658D01*
X113634106Y-67262665D01*
X113701983Y-67426540D01*
X113701990Y-67426553D01*
X113800535Y-67574034D01*
X113800538Y-67574038D01*
X113925961Y-67699461D01*
X113925965Y-67699464D01*
X114073446Y-67798009D01*
X114073459Y-67798016D01*
X114150106Y-67829763D01*
X114237334Y-67865894D01*
X114274691Y-67873324D01*
X114336602Y-67905709D01*
X114371176Y-67966425D01*
X114374500Y-67994942D01*
X114374500Y-73859111D01*
X114398535Y-73979944D01*
X114398540Y-73979961D01*
X114445685Y-74093780D01*
X114445687Y-74093783D01*
X114445688Y-74093786D01*
X114479915Y-74145009D01*
X114514142Y-74196233D01*
X114601267Y-74283358D01*
X114601269Y-74283359D01*
X114611232Y-74293322D01*
X117070390Y-76752481D01*
X117103875Y-76813804D01*
X117100641Y-76878477D01*
X117086485Y-76922048D01*
X117052000Y-77139778D01*
X117052000Y-77360221D01*
X117086485Y-77577952D01*
X117154603Y-77787603D01*
X117154604Y-77787606D01*
X117183943Y-77845185D01*
X117254549Y-77983756D01*
X117254687Y-77984025D01*
X117384252Y-78162358D01*
X117384256Y-78162363D01*
X117540136Y-78318243D01*
X117540141Y-78318247D01*
X117649654Y-78397812D01*
X117718478Y-78447815D01*
X117846875Y-78513237D01*
X117914893Y-78547895D01*
X117914896Y-78547896D01*
X117970659Y-78566014D01*
X118124549Y-78616015D01*
X118187501Y-78625985D01*
X118197232Y-78627527D01*
X118260367Y-78657456D01*
X118297298Y-78716768D01*
X118296300Y-78786630D01*
X118257690Y-78844863D01*
X118197232Y-78872473D01*
X118124547Y-78883985D01*
X117914896Y-78952103D01*
X117914893Y-78952104D01*
X117718474Y-79052187D01*
X117540141Y-79181752D01*
X117540136Y-79181756D01*
X117384256Y-79337636D01*
X117384252Y-79337641D01*
X117254687Y-79515974D01*
X117154604Y-79712393D01*
X117154603Y-79712396D01*
X117086485Y-79922047D01*
X117073640Y-80003147D01*
X117052000Y-80139778D01*
X117052000Y-80360222D01*
X117058776Y-80403001D01*
X117086485Y-80577952D01*
X117154603Y-80787603D01*
X117154604Y-80787606D01*
X117222622Y-80921096D01*
X117254549Y-80983756D01*
X117254687Y-80984025D01*
X117384252Y-81162358D01*
X117384256Y-81162363D01*
X117540136Y-81318243D01*
X117540141Y-81318247D01*
X117649068Y-81397386D01*
X117718478Y-81447815D01*
X117846875Y-81513237D01*
X117914893Y-81547895D01*
X117914896Y-81547896D01*
X117969157Y-81565526D01*
X118124549Y-81616015D01*
X118342278Y-81650500D01*
X118342279Y-81650500D01*
X118562721Y-81650500D01*
X118562722Y-81650500D01*
X118780451Y-81616015D01*
X118990106Y-81547895D01*
X119186522Y-81447815D01*
X119364865Y-81318242D01*
X119520742Y-81162365D01*
X119650315Y-80984022D01*
X119750395Y-80787606D01*
X119818515Y-80577951D01*
X119830280Y-80503668D01*
X119860209Y-80440534D01*
X119919520Y-80403602D01*
X119989383Y-80404600D01*
X120047616Y-80443209D01*
X120075226Y-80503668D01*
X120086973Y-80577835D01*
X120155067Y-80787410D01*
X120255111Y-80983756D01*
X120301432Y-81047513D01*
X120961371Y-80387574D01*
X120977255Y-80446853D01*
X121044398Y-80563147D01*
X121139353Y-80658102D01*
X121255647Y-80725245D01*
X121314924Y-80741128D01*
X120654985Y-81401065D01*
X120654985Y-81401066D01*
X120718743Y-81447388D01*
X120915089Y-81547432D01*
X121124664Y-81615526D01*
X121342319Y-81650000D01*
X121562681Y-81650000D01*
X121780335Y-81615526D01*
X121989910Y-81547432D01*
X122186260Y-81447386D01*
X122250013Y-81401066D01*
X122250014Y-81401066D01*
X121590075Y-80741128D01*
X121649353Y-80725245D01*
X121765647Y-80658102D01*
X121860602Y-80563147D01*
X121927745Y-80446853D01*
X121943627Y-80387575D01*
X122603566Y-81047514D01*
X122603566Y-81047513D01*
X122649886Y-80983760D01*
X122749932Y-80787410D01*
X122818026Y-80577835D01*
X122830027Y-80502069D01*
X122859956Y-80438935D01*
X122919267Y-80402003D01*
X122989130Y-80403001D01*
X123047363Y-80441611D01*
X123074973Y-80502069D01*
X123086973Y-80577835D01*
X123155067Y-80787410D01*
X123255111Y-80983756D01*
X123301432Y-81047513D01*
X123961371Y-80387574D01*
X123977255Y-80446853D01*
X124044398Y-80563147D01*
X124139353Y-80658102D01*
X124255647Y-80725245D01*
X124314924Y-80741128D01*
X123654985Y-81401065D01*
X123654985Y-81401066D01*
X123718743Y-81447388D01*
X123915089Y-81547432D01*
X124124664Y-81615526D01*
X124342319Y-81650000D01*
X124562681Y-81650000D01*
X124780335Y-81615526D01*
X124989910Y-81547432D01*
X125186260Y-81447386D01*
X125250013Y-81401066D01*
X125250014Y-81401066D01*
X124590075Y-80741128D01*
X124649353Y-80725245D01*
X124765647Y-80658102D01*
X124860602Y-80563147D01*
X124927745Y-80446853D01*
X124943627Y-80387575D01*
X125603566Y-81047514D01*
X125603566Y-81047513D01*
X125649886Y-80983760D01*
X125749932Y-80787410D01*
X125818026Y-80577835D01*
X125852500Y-80360181D01*
X125852500Y-80139818D01*
X125818026Y-79922164D01*
X125749932Y-79712589D01*
X125649888Y-79516243D01*
X125603566Y-79452485D01*
X125603565Y-79452485D01*
X124943627Y-80112423D01*
X124927745Y-80053147D01*
X124860602Y-79936853D01*
X124765647Y-79841898D01*
X124649353Y-79774755D01*
X124590073Y-79758871D01*
X125250013Y-79098932D01*
X125186256Y-79052611D01*
X124989910Y-78952567D01*
X124780335Y-78884473D01*
X124706168Y-78872726D01*
X124643033Y-78842797D01*
X124606102Y-78783485D01*
X124607100Y-78713623D01*
X124645710Y-78655390D01*
X124706168Y-78627780D01*
X124780451Y-78616015D01*
X124990106Y-78547895D01*
X125186522Y-78447815D01*
X125364865Y-78318242D01*
X125520742Y-78162365D01*
X125650315Y-77984022D01*
X125750395Y-77787606D01*
X125818515Y-77577951D01*
X125853000Y-77360222D01*
X125853000Y-77139778D01*
X125818515Y-76922049D01*
X125759365Y-76740000D01*
X125750396Y-76712396D01*
X125750395Y-76712393D01*
X125715737Y-76644375D01*
X125650315Y-76515978D01*
X125613985Y-76465974D01*
X125520747Y-76337641D01*
X125520743Y-76337636D01*
X125364863Y-76181756D01*
X125364858Y-76181752D01*
X125186525Y-76052187D01*
X125186524Y-76052186D01*
X125186522Y-76052185D01*
X125123596Y-76020122D01*
X124990106Y-75952104D01*
X124990103Y-75952103D01*
X124780452Y-75883985D01*
X124671586Y-75866742D01*
X124562722Y-75849500D01*
X124342278Y-75849500D01*
X124269701Y-75860995D01*
X124124547Y-75883985D01*
X123914896Y-75952103D01*
X123914893Y-75952104D01*
X123718474Y-76052187D01*
X123540141Y-76181752D01*
X123540136Y-76181756D01*
X123384256Y-76337636D01*
X123384252Y-76337641D01*
X123254687Y-76515974D01*
X123154604Y-76712393D01*
X123154603Y-76712396D01*
X123086485Y-76922047D01*
X123074719Y-76996332D01*
X123044789Y-77059466D01*
X122985477Y-77096397D01*
X122915615Y-77095399D01*
X122857382Y-77056788D01*
X122829772Y-76996330D01*
X122818025Y-76922159D01*
X122749932Y-76712589D01*
X122649888Y-76516243D01*
X122603566Y-76452485D01*
X122603565Y-76452485D01*
X121943627Y-77112423D01*
X121927745Y-77053147D01*
X121860602Y-76936853D01*
X121765647Y-76841898D01*
X121649353Y-76774755D01*
X121590073Y-76758871D01*
X122250013Y-76098932D01*
X122186256Y-76052611D01*
X121989910Y-75952567D01*
X121780335Y-75884473D01*
X121562681Y-75850000D01*
X121342319Y-75850000D01*
X121124664Y-75884473D01*
X120915089Y-75952567D01*
X120718733Y-76052616D01*
X120654985Y-76098931D01*
X120654985Y-76098932D01*
X121314924Y-76758871D01*
X121255647Y-76774755D01*
X121139353Y-76841898D01*
X121044398Y-76936853D01*
X120977255Y-77053147D01*
X120961371Y-77112424D01*
X120301432Y-76452485D01*
X120301431Y-76452485D01*
X120255116Y-76516233D01*
X120155067Y-76712589D01*
X120086973Y-76922164D01*
X120075226Y-76996331D01*
X120045297Y-77059466D01*
X119985985Y-77096397D01*
X119916122Y-77095399D01*
X119857890Y-77056789D01*
X119830280Y-76996330D01*
X119818515Y-76922048D01*
X119750396Y-76712396D01*
X119750395Y-76712393D01*
X119715737Y-76644375D01*
X119650315Y-76515978D01*
X119613985Y-76465974D01*
X119520747Y-76337641D01*
X119520743Y-76337636D01*
X119364863Y-76181756D01*
X119364858Y-76181752D01*
X119186525Y-76052187D01*
X119186524Y-76052186D01*
X119186522Y-76052185D01*
X119123596Y-76020122D01*
X118990106Y-75952104D01*
X118990103Y-75952103D01*
X118780452Y-75883985D01*
X118671586Y-75866742D01*
X118562722Y-75849500D01*
X118342278Y-75849500D01*
X118233413Y-75866742D01*
X118124548Y-75883985D01*
X118080977Y-75898141D01*
X118011136Y-75900134D01*
X117954981Y-75867890D01*
X115661819Y-73574728D01*
X115628334Y-73513405D01*
X115625500Y-73487047D01*
X115625500Y-67438393D01*
X115625499Y-67438389D01*
X115621343Y-67417493D01*
X115601463Y-67317548D01*
X115578730Y-67262666D01*
X115554312Y-67203715D01*
X115537256Y-67178190D01*
X115485858Y-67101267D01*
X115485856Y-67101264D01*
X115436819Y-67052227D01*
X115403334Y-66990904D01*
X115400500Y-66964546D01*
X115400500Y-66911306D01*
X115400499Y-66911304D01*
X115365896Y-66737341D01*
X115365893Y-66737332D01*
X115298016Y-66573459D01*
X115298009Y-66573446D01*
X115199464Y-66425965D01*
X115199461Y-66425961D01*
X115074038Y-66300538D01*
X115074034Y-66300535D01*
X114926553Y-66201990D01*
X114926540Y-66201983D01*
X114762667Y-66134106D01*
X114762658Y-66134103D01*
X114697369Y-66121117D01*
X114635458Y-66088732D01*
X114600884Y-66028016D01*
X114604623Y-65958247D01*
X114645490Y-65901575D01*
X114710508Y-65875994D01*
X114721560Y-65875500D01*
X117440048Y-65875500D01*
X117507087Y-65895185D01*
X117527729Y-65911819D01*
X129214639Y-77598729D01*
X129214642Y-77598733D01*
X129301767Y-77685858D01*
X129352990Y-77720084D01*
X129404214Y-77754312D01*
X129451300Y-77773815D01*
X129484594Y-77787606D01*
X129484595Y-77787606D01*
X129518048Y-77801463D01*
X129578471Y-77813481D01*
X129638893Y-77825500D01*
X129638894Y-77825500D01*
X130873403Y-77825500D01*
X130940442Y-77845185D01*
X130983888Y-77893205D01*
X131004687Y-77934026D01*
X131134252Y-78112358D01*
X131134256Y-78112363D01*
X131290136Y-78268243D01*
X131290141Y-78268247D01*
X131358961Y-78318247D01*
X131468478Y-78397815D01*
X131596875Y-78463237D01*
X131664893Y-78497895D01*
X131664896Y-78497896D01*
X131769721Y-78531955D01*
X131874549Y-78566015D01*
X131937501Y-78575985D01*
X131947232Y-78577527D01*
X132010367Y-78607456D01*
X132047298Y-78666768D01*
X132046300Y-78736630D01*
X132007690Y-78794863D01*
X131947232Y-78822473D01*
X131874547Y-78833985D01*
X131664896Y-78902103D01*
X131664893Y-78902104D01*
X131468474Y-79002187D01*
X131290141Y-79131752D01*
X131290136Y-79131756D01*
X131134256Y-79287636D01*
X131134252Y-79287641D01*
X131004687Y-79465974D01*
X130904604Y-79662393D01*
X130904603Y-79662396D01*
X130836485Y-79872047D01*
X130802000Y-80089778D01*
X130802000Y-80310221D01*
X130836485Y-80527952D01*
X130904603Y-80737603D01*
X130904604Y-80737606D01*
X130972622Y-80871096D01*
X131004549Y-80933756D01*
X131004687Y-80934025D01*
X131134252Y-81112358D01*
X131134256Y-81112363D01*
X131290136Y-81268243D01*
X131290141Y-81268247D01*
X131358961Y-81318247D01*
X131468478Y-81397815D01*
X131596875Y-81463237D01*
X131664893Y-81497895D01*
X131664896Y-81497896D01*
X131769721Y-81531955D01*
X131874549Y-81566015D01*
X132092278Y-81600500D01*
X132092279Y-81600500D01*
X132312721Y-81600500D01*
X132312722Y-81600500D01*
X132530451Y-81566015D01*
X132740106Y-81497895D01*
X132936522Y-81397815D01*
X133114865Y-81268242D01*
X133270742Y-81112365D01*
X133400315Y-80934022D01*
X133500395Y-80737606D01*
X133568515Y-80527951D01*
X133580280Y-80453668D01*
X133610209Y-80390534D01*
X133669520Y-80353602D01*
X133739383Y-80354600D01*
X133797616Y-80393209D01*
X133825226Y-80453668D01*
X133836973Y-80527835D01*
X133905067Y-80737410D01*
X134005111Y-80933756D01*
X134051432Y-80997513D01*
X134711371Y-80337574D01*
X134727255Y-80396853D01*
X134794398Y-80513147D01*
X134889353Y-80608102D01*
X135005647Y-80675245D01*
X135064924Y-80691128D01*
X134404985Y-81351065D01*
X134404985Y-81351066D01*
X134468743Y-81397388D01*
X134665089Y-81497432D01*
X134874664Y-81565526D01*
X135092319Y-81600000D01*
X135312681Y-81600000D01*
X135530335Y-81565526D01*
X135739910Y-81497432D01*
X135936260Y-81397386D01*
X136000013Y-81351066D01*
X136000014Y-81351066D01*
X135340075Y-80691128D01*
X135399353Y-80675245D01*
X135515647Y-80608102D01*
X135610602Y-80513147D01*
X135677745Y-80396853D01*
X135693628Y-80337575D01*
X136353566Y-80997514D01*
X136353566Y-80997513D01*
X136399886Y-80933760D01*
X136499932Y-80737410D01*
X136568026Y-80527835D01*
X136602500Y-80310181D01*
X136602500Y-80089818D01*
X136568026Y-79872164D01*
X136499932Y-79662589D01*
X136399888Y-79466243D01*
X136353566Y-79402485D01*
X136353565Y-79402485D01*
X135693627Y-80062423D01*
X135677745Y-80003147D01*
X135610602Y-79886853D01*
X135515647Y-79791898D01*
X135399353Y-79724755D01*
X135340073Y-79708871D01*
X136000013Y-79048932D01*
X135936256Y-79002611D01*
X135739910Y-78902567D01*
X135530335Y-78834473D01*
X135456168Y-78822726D01*
X135393033Y-78792797D01*
X135356102Y-78733485D01*
X135357100Y-78663623D01*
X135395710Y-78605390D01*
X135456168Y-78577780D01*
X135530451Y-78566015D01*
X135740106Y-78497895D01*
X135936522Y-78397815D01*
X136114865Y-78268242D01*
X136270742Y-78112365D01*
X136400315Y-77934022D01*
X136500395Y-77737606D01*
X136568515Y-77527951D01*
X136603000Y-77310222D01*
X136603000Y-77089778D01*
X136568515Y-76872049D01*
X136516704Y-76712589D01*
X136500396Y-76662396D01*
X136500395Y-76662393D01*
X136455610Y-76574500D01*
X136400315Y-76465978D01*
X136383760Y-76443192D01*
X136270747Y-76287641D01*
X136270743Y-76287636D01*
X136114863Y-76131756D01*
X136114858Y-76131752D01*
X135936525Y-76002187D01*
X135936524Y-76002186D01*
X135936522Y-76002185D01*
X135873596Y-75970122D01*
X135740106Y-75902104D01*
X135740103Y-75902103D01*
X135530452Y-75833985D01*
X135421586Y-75816742D01*
X135312722Y-75799500D01*
X135092278Y-75799500D01*
X135019701Y-75810995D01*
X134874547Y-75833985D01*
X134664896Y-75902103D01*
X134664893Y-75902104D01*
X134468474Y-76002187D01*
X134290141Y-76131752D01*
X134290136Y-76131756D01*
X134134256Y-76287636D01*
X134134252Y-76287641D01*
X134004687Y-76465974D01*
X133904604Y-76662393D01*
X133904603Y-76662396D01*
X133836485Y-76872047D01*
X133824973Y-76944732D01*
X133795044Y-77007867D01*
X133735732Y-77044798D01*
X133665870Y-77043800D01*
X133607637Y-77005190D01*
X133580027Y-76944732D01*
X133572379Y-76896446D01*
X133568515Y-76872049D01*
X133516704Y-76712589D01*
X133500396Y-76662396D01*
X133500395Y-76662393D01*
X133455610Y-76574500D01*
X133400315Y-76465978D01*
X133383760Y-76443192D01*
X133270747Y-76287641D01*
X133270743Y-76287636D01*
X133114863Y-76131756D01*
X133114858Y-76131752D01*
X132936525Y-76002187D01*
X132936524Y-76002186D01*
X132936522Y-76002185D01*
X132873596Y-75970122D01*
X132740106Y-75902104D01*
X132740103Y-75902103D01*
X132530452Y-75833985D01*
X132421586Y-75816742D01*
X132312722Y-75799500D01*
X132092278Y-75799500D01*
X132019701Y-75810995D01*
X131874547Y-75833985D01*
X131664896Y-75902103D01*
X131664893Y-75902104D01*
X131468474Y-76002187D01*
X131290141Y-76131752D01*
X131290136Y-76131756D01*
X131134256Y-76287636D01*
X131134252Y-76287641D01*
X131004687Y-76465973D01*
X130983888Y-76506795D01*
X130935914Y-76557591D01*
X130873403Y-76574500D01*
X130010952Y-76574500D01*
X129943913Y-76554815D01*
X129923271Y-76538181D01*
X123439546Y-70054456D01*
X123406061Y-69993133D01*
X123411045Y-69923441D01*
X123452917Y-69867508D01*
X123507822Y-69844304D01*
X123668136Y-69818913D01*
X123857132Y-69757505D01*
X124034194Y-69667287D01*
X124194964Y-69550481D01*
X124335481Y-69409964D01*
X124452287Y-69249194D01*
X124532296Y-69092167D01*
X124580269Y-69041372D01*
X124648090Y-69024577D01*
X124714225Y-69047114D01*
X124753265Y-69092168D01*
X124833141Y-69248932D01*
X124860230Y-69286215D01*
X124860231Y-69286216D01*
X125470361Y-68676085D01*
X125493167Y-68761194D01*
X125552410Y-68863806D01*
X125636194Y-68947590D01*
X125738806Y-69006833D01*
X125823914Y-69029637D01*
X125213783Y-69639768D01*
X125213783Y-69639769D01*
X125251067Y-69666858D01*
X125428062Y-69757042D01*
X125616977Y-69818424D01*
X125813179Y-69849500D01*
X126011821Y-69849500D01*
X126208020Y-69818424D01*
X126208023Y-69818424D01*
X126396937Y-69757042D01*
X126573925Y-69666862D01*
X126611216Y-69639768D01*
X126001085Y-69029637D01*
X126086194Y-69006833D01*
X126188806Y-68947590D01*
X126272590Y-68863806D01*
X126331833Y-68761194D01*
X126354638Y-68676085D01*
X126964768Y-69286215D01*
X126991864Y-69248922D01*
X127071734Y-69092169D01*
X127119708Y-69041372D01*
X127187529Y-69024577D01*
X127253664Y-69047114D01*
X127292703Y-69092167D01*
X127372713Y-69249194D01*
X127489519Y-69409964D01*
X127630036Y-69550481D01*
X127790806Y-69667287D01*
X127877649Y-69711535D01*
X127967867Y-69757505D01*
X127967870Y-69757506D01*
X128062366Y-69788209D01*
X128156864Y-69818913D01*
X128353139Y-69850000D01*
X128353140Y-69850000D01*
X128551860Y-69850000D01*
X128551861Y-69850000D01*
X128748136Y-69818913D01*
X128937132Y-69757505D01*
X129114194Y-69667287D01*
X129274964Y-69550481D01*
X129415481Y-69409964D01*
X129532287Y-69249194D01*
X129622505Y-69072132D01*
X129683913Y-68883136D01*
X129715000Y-68686861D01*
X129715000Y-68488139D01*
X129683913Y-68291864D01*
X129622505Y-68102868D01*
X129622505Y-68102867D01*
X129567514Y-67994942D01*
X129532287Y-67925806D01*
X129415481Y-67765036D01*
X129274964Y-67624519D01*
X129114194Y-67507713D01*
X128937132Y-67417494D01*
X128937129Y-67417493D01*
X128748137Y-67356087D01*
X128649998Y-67340543D01*
X128551861Y-67325000D01*
X128353139Y-67325000D01*
X128287714Y-67335362D01*
X128156862Y-67356087D01*
X127967870Y-67417493D01*
X127967867Y-67417494D01*
X127790805Y-67507713D01*
X127630033Y-67624521D01*
X127489521Y-67765033D01*
X127372713Y-67925805D01*
X127292704Y-68082831D01*
X127244729Y-68133627D01*
X127176908Y-68150422D01*
X127110773Y-68127884D01*
X127071734Y-68082831D01*
X126991858Y-67926067D01*
X126964768Y-67888783D01*
X126354637Y-68498914D01*
X126331833Y-68413806D01*
X126272590Y-68311194D01*
X126188806Y-68227410D01*
X126086194Y-68168167D01*
X126001085Y-68145361D01*
X126611216Y-67535231D01*
X126611215Y-67535230D01*
X126573932Y-67508141D01*
X126396937Y-67417957D01*
X126208022Y-67356575D01*
X126011821Y-67325500D01*
X125813179Y-67325500D01*
X125616979Y-67356575D01*
X125616976Y-67356575D01*
X125428062Y-67417957D01*
X125251064Y-67508143D01*
X125213783Y-67535229D01*
X125213782Y-67535230D01*
X125823915Y-68145361D01*
X125738806Y-68168167D01*
X125636194Y-68227410D01*
X125552410Y-68311194D01*
X125493167Y-68413806D01*
X125470361Y-68498914D01*
X124860230Y-67888782D01*
X124860229Y-67888783D01*
X124833141Y-67926066D01*
X124753264Y-68082832D01*
X124705290Y-68133627D01*
X124637469Y-68150422D01*
X124571334Y-68127884D01*
X124532296Y-68082832D01*
X124452287Y-67925806D01*
X124335481Y-67765036D01*
X124194964Y-67624519D01*
X124034194Y-67507713D01*
X123857132Y-67417494D01*
X123857129Y-67417493D01*
X123668137Y-67356087D01*
X123569998Y-67340543D01*
X123471861Y-67325000D01*
X123273139Y-67325000D01*
X123207714Y-67335362D01*
X123076862Y-67356087D01*
X122887870Y-67417493D01*
X122887867Y-67417494D01*
X122710805Y-67507713D01*
X122550033Y-67624521D01*
X122409521Y-67765033D01*
X122292713Y-67925805D01*
X122202494Y-68102867D01*
X122202493Y-68102870D01*
X122141087Y-68291862D01*
X122115697Y-68452170D01*
X122085768Y-68515305D01*
X122026456Y-68552236D01*
X121956594Y-68551238D01*
X121905543Y-68520453D01*
X118243650Y-64858560D01*
X118236360Y-64851270D01*
X118236358Y-64851267D01*
X118149233Y-64764142D01*
X118098009Y-64729915D01*
X118046786Y-64695688D01*
X118046783Y-64695686D01*
X118046780Y-64695685D01*
X117973103Y-64665168D01*
X117973101Y-64665167D01*
X117966292Y-64662347D01*
X117932952Y-64648537D01*
X117872529Y-64636518D01*
X117867806Y-64635578D01*
X117867804Y-64635578D01*
X117812110Y-64624500D01*
X117812107Y-64624500D01*
X117812106Y-64624500D01*
X109567741Y-64624500D01*
X109567721Y-64624499D01*
X109561607Y-64624499D01*
X109438394Y-64624499D01*
X109337597Y-64644548D01*
X109337592Y-64644548D01*
X109317549Y-64648536D01*
X109317547Y-64648536D01*
X109270397Y-64668067D01*
X109203719Y-64695685D01*
X109203712Y-64695689D01*
X109116146Y-64754199D01*
X109049469Y-64775077D01*
X109023066Y-64772715D01*
X109009135Y-64769944D01*
X108831753Y-64769944D01*
X108831750Y-64769944D01*
X108657785Y-64804547D01*
X108657776Y-64804550D01*
X108493903Y-64872427D01*
X108493890Y-64872434D01*
X108346409Y-64970979D01*
X108346405Y-64970982D01*
X108220982Y-65096405D01*
X108220979Y-65096409D01*
X108122434Y-65243890D01*
X108122427Y-65243903D01*
X108054550Y-65407776D01*
X108054547Y-65407785D01*
X108019944Y-65581748D01*
X104400500Y-65581748D01*
X104400500Y-59878711D01*
X106149500Y-59878711D01*
X106149500Y-60121288D01*
X106181161Y-60361785D01*
X106243947Y-60596104D01*
X106336238Y-60818913D01*
X106336776Y-60820212D01*
X106458064Y-61030289D01*
X106458066Y-61030292D01*
X106458067Y-61030293D01*
X106605733Y-61222736D01*
X106605739Y-61222743D01*
X106777256Y-61394260D01*
X106777262Y-61394265D01*
X106969711Y-61541936D01*
X107179788Y-61663224D01*
X107403900Y-61756054D01*
X107638211Y-61818838D01*
X107818586Y-61842584D01*
X107878711Y-61850500D01*
X107878712Y-61850500D01*
X108121289Y-61850500D01*
X108169388Y-61844167D01*
X108361789Y-61818838D01*
X108596100Y-61756054D01*
X108820212Y-61663224D01*
X109030289Y-61541936D01*
X109222738Y-61394265D01*
X109394265Y-61222738D01*
X109541936Y-61030289D01*
X109663224Y-60820212D01*
X109756054Y-60596100D01*
X109818838Y-60361789D01*
X109850500Y-60121288D01*
X109850500Y-59878712D01*
X109818838Y-59638211D01*
X109778626Y-59488139D01*
X122062500Y-59488139D01*
X122062500Y-59686860D01*
X122093587Y-59883137D01*
X122154993Y-60072129D01*
X122154994Y-60072132D01*
X122165204Y-60092169D01*
X122245213Y-60249194D01*
X122362019Y-60409964D01*
X122502536Y-60550481D01*
X122663306Y-60667287D01*
X122750149Y-60711535D01*
X122840367Y-60757505D01*
X122840370Y-60757506D01*
X122934866Y-60788209D01*
X123029364Y-60818913D01*
X123225639Y-60850000D01*
X123225640Y-60850000D01*
X123424360Y-60850000D01*
X123424361Y-60850000D01*
X123620636Y-60818913D01*
X123809632Y-60757505D01*
X123986694Y-60667287D01*
X124147464Y-60550481D01*
X124287981Y-60409964D01*
X124404787Y-60249194D01*
X124484796Y-60092167D01*
X124532769Y-60041372D01*
X124600590Y-60024577D01*
X124666725Y-60047114D01*
X124705765Y-60092168D01*
X124785641Y-60248932D01*
X124812730Y-60286215D01*
X124812731Y-60286216D01*
X125422861Y-59676085D01*
X125445667Y-59761194D01*
X125504910Y-59863806D01*
X125588694Y-59947590D01*
X125691306Y-60006833D01*
X125776414Y-60029637D01*
X125166283Y-60639768D01*
X125166283Y-60639769D01*
X125203567Y-60666858D01*
X125380562Y-60757042D01*
X125569477Y-60818424D01*
X125765679Y-60849500D01*
X125964321Y-60849500D01*
X126160520Y-60818424D01*
X126160523Y-60818424D01*
X126349437Y-60757042D01*
X126526425Y-60666862D01*
X126563716Y-60639768D01*
X125953585Y-60029637D01*
X126038694Y-60006833D01*
X126141306Y-59947590D01*
X126225090Y-59863806D01*
X126284333Y-59761194D01*
X126307138Y-59676085D01*
X126917268Y-60286215D01*
X126944364Y-60248922D01*
X127024234Y-60092169D01*
X127072208Y-60041372D01*
X127140029Y-60024577D01*
X127206164Y-60047114D01*
X127245203Y-60092167D01*
X127325213Y-60249194D01*
X127442019Y-60409964D01*
X127582536Y-60550481D01*
X127743306Y-60667287D01*
X127830149Y-60711535D01*
X127920367Y-60757505D01*
X127920370Y-60757506D01*
X128014866Y-60788209D01*
X128109364Y-60818913D01*
X128305639Y-60850000D01*
X128305640Y-60850000D01*
X128504360Y-60850000D01*
X128504361Y-60850000D01*
X128700636Y-60818913D01*
X128889632Y-60757505D01*
X129066694Y-60667287D01*
X129227464Y-60550481D01*
X129367981Y-60409964D01*
X129484787Y-60249194D01*
X129575005Y-60072132D01*
X129636413Y-59883136D01*
X129667500Y-59686861D01*
X129667500Y-59488139D01*
X129636413Y-59291864D01*
X129575005Y-59102868D01*
X129575005Y-59102867D01*
X129495725Y-58947273D01*
X129484787Y-58925806D01*
X129367981Y-58765036D01*
X129227464Y-58624519D01*
X129066694Y-58507713D01*
X128889632Y-58417494D01*
X128889629Y-58417493D01*
X128700637Y-58356087D01*
X128578718Y-58336777D01*
X128504361Y-58325000D01*
X128305639Y-58325000D01*
X128240214Y-58335362D01*
X128109362Y-58356087D01*
X127920370Y-58417493D01*
X127920367Y-58417494D01*
X127743305Y-58507713D01*
X127582533Y-58624521D01*
X127442021Y-58765033D01*
X127325213Y-58925805D01*
X127245204Y-59082831D01*
X127197229Y-59133627D01*
X127129408Y-59150422D01*
X127063273Y-59127884D01*
X127024234Y-59082831D01*
X126944358Y-58926067D01*
X126917268Y-58888783D01*
X126307137Y-59498914D01*
X126284333Y-59413806D01*
X126225090Y-59311194D01*
X126141306Y-59227410D01*
X126038694Y-59168167D01*
X125953585Y-59145361D01*
X126563716Y-58535231D01*
X126563715Y-58535230D01*
X126526432Y-58508141D01*
X126349437Y-58417957D01*
X126160522Y-58356575D01*
X125964321Y-58325500D01*
X125765679Y-58325500D01*
X125569479Y-58356575D01*
X125569476Y-58356575D01*
X125380562Y-58417957D01*
X125203564Y-58508143D01*
X125166283Y-58535229D01*
X125166282Y-58535230D01*
X125776415Y-59145361D01*
X125691306Y-59168167D01*
X125588694Y-59227410D01*
X125504910Y-59311194D01*
X125445667Y-59413806D01*
X125422861Y-59498914D01*
X124812730Y-58888782D01*
X124812729Y-58888783D01*
X124785641Y-58926066D01*
X124705764Y-59082832D01*
X124657790Y-59133627D01*
X124589969Y-59150422D01*
X124523834Y-59127884D01*
X124484796Y-59082832D01*
X124404787Y-58925806D01*
X124287981Y-58765036D01*
X124147464Y-58624519D01*
X123986694Y-58507713D01*
X123809632Y-58417494D01*
X123809629Y-58417493D01*
X123620637Y-58356087D01*
X123498718Y-58336777D01*
X123424361Y-58325000D01*
X123225639Y-58325000D01*
X123160214Y-58335362D01*
X123029362Y-58356087D01*
X122840370Y-58417493D01*
X122840367Y-58417494D01*
X122663305Y-58507713D01*
X122502533Y-58624521D01*
X122362021Y-58765033D01*
X122245213Y-58925805D01*
X122154994Y-59102867D01*
X122154993Y-59102870D01*
X122093587Y-59291862D01*
X122062500Y-59488139D01*
X109778626Y-59488139D01*
X109756054Y-59403900D01*
X109663224Y-59179788D01*
X109541936Y-58969711D01*
X109394265Y-58777262D01*
X109394260Y-58777256D01*
X109222743Y-58605739D01*
X109222736Y-58605733D01*
X109030293Y-58458067D01*
X109030292Y-58458066D01*
X109030289Y-58458064D01*
X108820212Y-58336776D01*
X108820205Y-58336773D01*
X108596104Y-58243947D01*
X108361785Y-58181161D01*
X108121289Y-58149500D01*
X108121288Y-58149500D01*
X107878712Y-58149500D01*
X107878711Y-58149500D01*
X107638214Y-58181161D01*
X107403895Y-58243947D01*
X107179794Y-58336773D01*
X107179785Y-58336777D01*
X106969706Y-58458067D01*
X106777263Y-58605733D01*
X106777256Y-58605739D01*
X106605739Y-58777256D01*
X106605733Y-58777263D01*
X106458067Y-58969706D01*
X106336777Y-59179785D01*
X106336773Y-59179794D01*
X106243947Y-59403895D01*
X106181161Y-59638214D01*
X106149500Y-59878711D01*
X104400500Y-59878711D01*
X104400500Y-59003480D01*
X104400695Y-58996528D01*
X104404652Y-58926066D01*
X104416455Y-58715891D01*
X104418009Y-58702092D01*
X104464510Y-58428412D01*
X104467598Y-58414880D01*
X104544450Y-58148119D01*
X104549040Y-58135006D01*
X104555803Y-58118678D01*
X104655268Y-57878545D01*
X104661290Y-57866039D01*
X104795574Y-57623072D01*
X104802969Y-57611304D01*
X104963605Y-57384908D01*
X104972260Y-57374054D01*
X105157245Y-57167057D01*
X105167057Y-57157245D01*
X105374054Y-56972260D01*
X105384908Y-56963605D01*
X105611309Y-56802965D01*
X105623072Y-56795574D01*
X105866039Y-56661290D01*
X105878545Y-56655268D01*
X106135006Y-56549039D01*
X106148119Y-56544450D01*
X106414880Y-56467598D01*
X106428412Y-56464510D01*
X106702092Y-56418009D01*
X106715891Y-56416455D01*
X106962054Y-56402630D01*
X106996529Y-56400695D01*
X107003481Y-56400500D01*
X107057583Y-56400500D01*
X136942417Y-56400500D01*
X136996519Y-56400500D01*
X137003471Y-56400695D01*
G37*
G04 #@! TD.AperFunction*
M02*
