G04 #@! TF.GenerationSoftware,KiCad,Pcbnew,9.0.0*
G04 #@! TF.CreationDate,2025-06-17T18:49:07+02:00*
G04 #@! TF.ProjectId,SlipSensor_HW,536c6970-5365-46e7-936f-725f48572e6b,rev?*
G04 #@! TF.SameCoordinates,Original*
G04 #@! TF.FileFunction,Legend,Top*
G04 #@! TF.FilePolarity,Positive*
%FSLAX46Y46*%
G04 Gerber Fmt 4.6, Leading zero omitted, Abs format (unit mm)*
G04 Created by KiCad (PCBNEW 9.0.0) date 2025-06-17 18:49:07*
%MOMM*%
%LPD*%
G01*
G04 APERTURE LIST*
G04 Aperture macros list*
%AMRoundRect*
0 Rectangle with rounded corners*
0 $1 Rounding radius*
0 $2 $3 $4 $5 $6 $7 $8 $9 X,Y pos of 4 corners*
0 Add a 4 corners polygon primitive as box body*
4,1,4,$2,$3,$4,$5,$6,$7,$8,$9,$2,$3,0*
0 Add four circle primitives for the rounded corners*
1,1,$1+$1,$2,$3*
1,1,$1+$1,$4,$5*
1,1,$1+$1,$6,$7*
1,1,$1+$1,$8,$9*
0 Add four rect primitives between the rounded corners*
20,1,$1+$1,$2,$3,$4,$5,0*
20,1,$1+$1,$4,$5,$6,$7,0*
20,1,$1+$1,$6,$7,$8,$9,0*
20,1,$1+$1,$8,$9,$2,$3,0*%
G04 Aperture macros list end*
%ADD10C,0.080000*%
%ADD11C,0.120000*%
%ADD12C,0.150000*%
%ADD13C,0.100000*%
%ADD14RoundRect,0.237500X0.287500X0.237500X-0.287500X0.237500X-0.287500X-0.237500X0.287500X-0.237500X0*%
%ADD15RoundRect,0.225000X0.250000X-0.225000X0.250000X0.225000X-0.250000X0.225000X-0.250000X-0.225000X0*%
%ADD16RoundRect,0.237500X-0.250000X-0.237500X0.250000X-0.237500X0.250000X0.237500X-0.250000X0.237500X0*%
%ADD17RoundRect,0.225000X-0.250000X0.225000X-0.250000X-0.225000X0.250000X-0.225000X0.250000X0.225000X0*%
%ADD18RoundRect,0.250000X-0.250000X0.250000X-0.250000X-0.250000X0.250000X-0.250000X0.250000X0.250000X0*%
%ADD19RoundRect,0.200000X-0.275000X0.200000X-0.275000X-0.200000X0.275000X-0.200000X0.275000X0.200000X0*%
%ADD20C,1.524000*%
%ADD21RoundRect,0.237500X0.300000X0.237500X-0.300000X0.237500X-0.300000X-0.237500X0.300000X-0.237500X0*%
%ADD22C,3.200000*%
%ADD23RoundRect,0.200000X0.275000X-0.200000X0.275000X0.200000X-0.275000X0.200000X-0.275000X-0.200000X0*%
%ADD24RoundRect,0.237500X-0.300000X-0.237500X0.300000X-0.237500X0.300000X0.237500X-0.300000X0.237500X0*%
%ADD25RoundRect,0.250000X0.250000X0.250000X-0.250000X0.250000X-0.250000X-0.250000X0.250000X-0.250000X0*%
%ADD26RoundRect,0.237500X-0.237500X0.300000X-0.237500X-0.300000X0.237500X-0.300000X0.237500X0.300000X0*%
%ADD27RoundRect,0.237500X-0.237500X0.287500X-0.237500X-0.287500X0.237500X-0.287500X0.237500X0.287500X0*%
%ADD28RoundRect,0.250000X0.250000X-0.250000X0.250000X0.250000X-0.250000X0.250000X-0.250000X-0.250000X0*%
%ADD29RoundRect,0.150000X0.150000X-0.825000X0.150000X0.825000X-0.150000X0.825000X-0.150000X-0.825000X0*%
%ADD30RoundRect,0.250000X-0.325000X-0.450000X0.325000X-0.450000X0.325000X0.450000X-0.325000X0.450000X0*%
%ADD31RoundRect,0.250000X-0.450000X0.325000X-0.450000X-0.325000X0.450000X-0.325000X0.450000X0.325000X0*%
%ADD32C,3.000000*%
%ADD33C,1.800000*%
%ADD34RoundRect,0.237500X-0.287500X-0.237500X0.287500X-0.237500X0.287500X0.237500X-0.287500X0.237500X0*%
%ADD35RoundRect,0.237500X0.237500X-0.287500X0.237500X0.287500X-0.237500X0.287500X-0.237500X-0.287500X0*%
G04 APERTURE END LIST*
D10*
X105205011Y-80745975D02*
X105319297Y-80784070D01*
X105319297Y-80784070D02*
X105509773Y-80784070D01*
X105509773Y-80784070D02*
X105585964Y-80745975D01*
X105585964Y-80745975D02*
X105624059Y-80707879D01*
X105624059Y-80707879D02*
X105662154Y-80631689D01*
X105662154Y-80631689D02*
X105662154Y-80555498D01*
X105662154Y-80555498D02*
X105624059Y-80479308D01*
X105624059Y-80479308D02*
X105585964Y-80441213D01*
X105585964Y-80441213D02*
X105509773Y-80403117D01*
X105509773Y-80403117D02*
X105357392Y-80365022D01*
X105357392Y-80365022D02*
X105281202Y-80326927D01*
X105281202Y-80326927D02*
X105243107Y-80288832D01*
X105243107Y-80288832D02*
X105205011Y-80212641D01*
X105205011Y-80212641D02*
X105205011Y-80136451D01*
X105205011Y-80136451D02*
X105243107Y-80060260D01*
X105243107Y-80060260D02*
X105281202Y-80022165D01*
X105281202Y-80022165D02*
X105357392Y-79984070D01*
X105357392Y-79984070D02*
X105547869Y-79984070D01*
X105547869Y-79984070D02*
X105662154Y-80022165D01*
X106119297Y-80784070D02*
X106043107Y-80745975D01*
X106043107Y-80745975D02*
X106005012Y-80669784D01*
X106005012Y-80669784D02*
X106005012Y-79984070D01*
X106424060Y-80784070D02*
X106424060Y-80250736D01*
X106424060Y-79984070D02*
X106385964Y-80022165D01*
X106385964Y-80022165D02*
X106424060Y-80060260D01*
X106424060Y-80060260D02*
X106462155Y-80022165D01*
X106462155Y-80022165D02*
X106424060Y-79984070D01*
X106424060Y-79984070D02*
X106424060Y-80060260D01*
X106805012Y-80250736D02*
X106805012Y-81050736D01*
X106805012Y-80288832D02*
X106881202Y-80250736D01*
X106881202Y-80250736D02*
X107033583Y-80250736D01*
X107033583Y-80250736D02*
X107109774Y-80288832D01*
X107109774Y-80288832D02*
X107147869Y-80326927D01*
X107147869Y-80326927D02*
X107185964Y-80403117D01*
X107185964Y-80403117D02*
X107185964Y-80631689D01*
X107185964Y-80631689D02*
X107147869Y-80707879D01*
X107147869Y-80707879D02*
X107109774Y-80745975D01*
X107109774Y-80745975D02*
X107033583Y-80784070D01*
X107033583Y-80784070D02*
X106881202Y-80784070D01*
X106881202Y-80784070D02*
X106805012Y-80745975D01*
X107490726Y-80745975D02*
X107566917Y-80784070D01*
X107566917Y-80784070D02*
X107719298Y-80784070D01*
X107719298Y-80784070D02*
X107795488Y-80745975D01*
X107795488Y-80745975D02*
X107833584Y-80669784D01*
X107833584Y-80669784D02*
X107833584Y-80631689D01*
X107833584Y-80631689D02*
X107795488Y-80555498D01*
X107795488Y-80555498D02*
X107719298Y-80517403D01*
X107719298Y-80517403D02*
X107605012Y-80517403D01*
X107605012Y-80517403D02*
X107528822Y-80479308D01*
X107528822Y-80479308D02*
X107490726Y-80403117D01*
X107490726Y-80403117D02*
X107490726Y-80365022D01*
X107490726Y-80365022D02*
X107528822Y-80288832D01*
X107528822Y-80288832D02*
X107605012Y-80250736D01*
X107605012Y-80250736D02*
X107719298Y-80250736D01*
X107719298Y-80250736D02*
X107795488Y-80288832D01*
X108481203Y-80745975D02*
X108405012Y-80784070D01*
X108405012Y-80784070D02*
X108252631Y-80784070D01*
X108252631Y-80784070D02*
X108176441Y-80745975D01*
X108176441Y-80745975D02*
X108138345Y-80669784D01*
X108138345Y-80669784D02*
X108138345Y-80365022D01*
X108138345Y-80365022D02*
X108176441Y-80288832D01*
X108176441Y-80288832D02*
X108252631Y-80250736D01*
X108252631Y-80250736D02*
X108405012Y-80250736D01*
X108405012Y-80250736D02*
X108481203Y-80288832D01*
X108481203Y-80288832D02*
X108519298Y-80365022D01*
X108519298Y-80365022D02*
X108519298Y-80441213D01*
X108519298Y-80441213D02*
X108138345Y-80517403D01*
X108862155Y-80250736D02*
X108862155Y-80784070D01*
X108862155Y-80326927D02*
X108900250Y-80288832D01*
X108900250Y-80288832D02*
X108976440Y-80250736D01*
X108976440Y-80250736D02*
X109090726Y-80250736D01*
X109090726Y-80250736D02*
X109166917Y-80288832D01*
X109166917Y-80288832D02*
X109205012Y-80365022D01*
X109205012Y-80365022D02*
X109205012Y-80784070D01*
X109547869Y-80745975D02*
X109624060Y-80784070D01*
X109624060Y-80784070D02*
X109776441Y-80784070D01*
X109776441Y-80784070D02*
X109852631Y-80745975D01*
X109852631Y-80745975D02*
X109890727Y-80669784D01*
X109890727Y-80669784D02*
X109890727Y-80631689D01*
X109890727Y-80631689D02*
X109852631Y-80555498D01*
X109852631Y-80555498D02*
X109776441Y-80517403D01*
X109776441Y-80517403D02*
X109662155Y-80517403D01*
X109662155Y-80517403D02*
X109585965Y-80479308D01*
X109585965Y-80479308D02*
X109547869Y-80403117D01*
X109547869Y-80403117D02*
X109547869Y-80365022D01*
X109547869Y-80365022D02*
X109585965Y-80288832D01*
X109585965Y-80288832D02*
X109662155Y-80250736D01*
X109662155Y-80250736D02*
X109776441Y-80250736D01*
X109776441Y-80250736D02*
X109852631Y-80288832D01*
X110347869Y-80784070D02*
X110271679Y-80745975D01*
X110271679Y-80745975D02*
X110233584Y-80707879D01*
X110233584Y-80707879D02*
X110195488Y-80631689D01*
X110195488Y-80631689D02*
X110195488Y-80403117D01*
X110195488Y-80403117D02*
X110233584Y-80326927D01*
X110233584Y-80326927D02*
X110271679Y-80288832D01*
X110271679Y-80288832D02*
X110347869Y-80250736D01*
X110347869Y-80250736D02*
X110462155Y-80250736D01*
X110462155Y-80250736D02*
X110538346Y-80288832D01*
X110538346Y-80288832D02*
X110576441Y-80326927D01*
X110576441Y-80326927D02*
X110614536Y-80403117D01*
X110614536Y-80403117D02*
X110614536Y-80631689D01*
X110614536Y-80631689D02*
X110576441Y-80707879D01*
X110576441Y-80707879D02*
X110538346Y-80745975D01*
X110538346Y-80745975D02*
X110462155Y-80784070D01*
X110462155Y-80784070D02*
X110347869Y-80784070D01*
X110957394Y-80784070D02*
X110957394Y-80250736D01*
X110957394Y-80403117D02*
X110995489Y-80326927D01*
X110995489Y-80326927D02*
X111033584Y-80288832D01*
X111033584Y-80288832D02*
X111109775Y-80250736D01*
X111109775Y-80250736D02*
X111185965Y-80250736D01*
X111985965Y-80250736D02*
X112176441Y-80784070D01*
X112176441Y-80784070D02*
X112366918Y-80250736D01*
X113090727Y-80784070D02*
X112633584Y-80784070D01*
X112862156Y-80784070D02*
X112862156Y-79984070D01*
X112862156Y-79984070D02*
X112785965Y-80098355D01*
X112785965Y-80098355D02*
X112709775Y-80174546D01*
X112709775Y-80174546D02*
X112633584Y-80212641D01*
X113433585Y-80707879D02*
X113471680Y-80745975D01*
X113471680Y-80745975D02*
X113433585Y-80784070D01*
X113433585Y-80784070D02*
X113395489Y-80745975D01*
X113395489Y-80745975D02*
X113433585Y-80707879D01*
X113433585Y-80707879D02*
X113433585Y-80784070D01*
X113966918Y-79984070D02*
X114043108Y-79984070D01*
X114043108Y-79984070D02*
X114119299Y-80022165D01*
X114119299Y-80022165D02*
X114157394Y-80060260D01*
X114157394Y-80060260D02*
X114195489Y-80136451D01*
X114195489Y-80136451D02*
X114233584Y-80288832D01*
X114233584Y-80288832D02*
X114233584Y-80479308D01*
X114233584Y-80479308D02*
X114195489Y-80631689D01*
X114195489Y-80631689D02*
X114157394Y-80707879D01*
X114157394Y-80707879D02*
X114119299Y-80745975D01*
X114119299Y-80745975D02*
X114043108Y-80784070D01*
X114043108Y-80784070D02*
X113966918Y-80784070D01*
X113966918Y-80784070D02*
X113890727Y-80745975D01*
X113890727Y-80745975D02*
X113852632Y-80707879D01*
X113852632Y-80707879D02*
X113814537Y-80631689D01*
X113814537Y-80631689D02*
X113776441Y-80479308D01*
X113776441Y-80479308D02*
X113776441Y-80288832D01*
X113776441Y-80288832D02*
X113814537Y-80136451D01*
X113814537Y-80136451D02*
X113852632Y-80060260D01*
X113852632Y-80060260D02*
X113890727Y-80022165D01*
X113890727Y-80022165D02*
X113966918Y-79984070D01*
X105205011Y-81843453D02*
X105585964Y-81843453D01*
X105128821Y-82072025D02*
X105395488Y-81272025D01*
X105395488Y-81272025D02*
X105662154Y-82072025D01*
X105928821Y-82072025D02*
X105928821Y-81538691D01*
X105928821Y-81272025D02*
X105890725Y-81310120D01*
X105890725Y-81310120D02*
X105928821Y-81348215D01*
X105928821Y-81348215D02*
X105966916Y-81310120D01*
X105966916Y-81310120D02*
X105928821Y-81272025D01*
X105928821Y-81272025D02*
X105928821Y-81348215D01*
X106271677Y-82033930D02*
X106347868Y-82072025D01*
X106347868Y-82072025D02*
X106500249Y-82072025D01*
X106500249Y-82072025D02*
X106576439Y-82033930D01*
X106576439Y-82033930D02*
X106614535Y-81957739D01*
X106614535Y-81957739D02*
X106614535Y-81919644D01*
X106614535Y-81919644D02*
X106576439Y-81843453D01*
X106576439Y-81843453D02*
X106500249Y-81805358D01*
X106500249Y-81805358D02*
X106385963Y-81805358D01*
X106385963Y-81805358D02*
X106309773Y-81767263D01*
X106309773Y-81767263D02*
X106271677Y-81691072D01*
X106271677Y-81691072D02*
X106271677Y-81652977D01*
X106271677Y-81652977D02*
X106309773Y-81576787D01*
X106309773Y-81576787D02*
X106385963Y-81538691D01*
X106385963Y-81538691D02*
X106500249Y-81538691D01*
X106500249Y-81538691D02*
X106576439Y-81576787D01*
X106919296Y-82033930D02*
X106995487Y-82072025D01*
X106995487Y-82072025D02*
X107147868Y-82072025D01*
X107147868Y-82072025D02*
X107224058Y-82033930D01*
X107224058Y-82033930D02*
X107262154Y-81957739D01*
X107262154Y-81957739D02*
X107262154Y-81919644D01*
X107262154Y-81919644D02*
X107224058Y-81843453D01*
X107224058Y-81843453D02*
X107147868Y-81805358D01*
X107147868Y-81805358D02*
X107033582Y-81805358D01*
X107033582Y-81805358D02*
X106957392Y-81767263D01*
X106957392Y-81767263D02*
X106919296Y-81691072D01*
X106919296Y-81691072D02*
X106919296Y-81652977D01*
X106919296Y-81652977D02*
X106957392Y-81576787D01*
X106957392Y-81576787D02*
X107033582Y-81538691D01*
X107033582Y-81538691D02*
X107147868Y-81538691D01*
X107147868Y-81538691D02*
X107224058Y-81576787D01*
X107947868Y-82072025D02*
X107947868Y-81652977D01*
X107947868Y-81652977D02*
X107909773Y-81576787D01*
X107909773Y-81576787D02*
X107833582Y-81538691D01*
X107833582Y-81538691D02*
X107681201Y-81538691D01*
X107681201Y-81538691D02*
X107605011Y-81576787D01*
X107947868Y-82033930D02*
X107871677Y-82072025D01*
X107871677Y-82072025D02*
X107681201Y-82072025D01*
X107681201Y-82072025D02*
X107605011Y-82033930D01*
X107605011Y-82033930D02*
X107566915Y-81957739D01*
X107566915Y-81957739D02*
X107566915Y-81881549D01*
X107566915Y-81881549D02*
X107605011Y-81805358D01*
X107605011Y-81805358D02*
X107681201Y-81767263D01*
X107681201Y-81767263D02*
X107871677Y-81767263D01*
X107871677Y-81767263D02*
X107947868Y-81729168D01*
X109205011Y-81652977D02*
X109319297Y-81691072D01*
X109319297Y-81691072D02*
X109357392Y-81729168D01*
X109357392Y-81729168D02*
X109395488Y-81805358D01*
X109395488Y-81805358D02*
X109395488Y-81919644D01*
X109395488Y-81919644D02*
X109357392Y-81995834D01*
X109357392Y-81995834D02*
X109319297Y-82033930D01*
X109319297Y-82033930D02*
X109243107Y-82072025D01*
X109243107Y-82072025D02*
X108938345Y-82072025D01*
X108938345Y-82072025D02*
X108938345Y-81272025D01*
X108938345Y-81272025D02*
X109205011Y-81272025D01*
X109205011Y-81272025D02*
X109281202Y-81310120D01*
X109281202Y-81310120D02*
X109319297Y-81348215D01*
X109319297Y-81348215D02*
X109357392Y-81424406D01*
X109357392Y-81424406D02*
X109357392Y-81500596D01*
X109357392Y-81500596D02*
X109319297Y-81576787D01*
X109319297Y-81576787D02*
X109281202Y-81614882D01*
X109281202Y-81614882D02*
X109205011Y-81652977D01*
X109205011Y-81652977D02*
X108938345Y-81652977D01*
X109852630Y-82072025D02*
X109776440Y-82033930D01*
X109776440Y-82033930D02*
X109738345Y-81995834D01*
X109738345Y-81995834D02*
X109700249Y-81919644D01*
X109700249Y-81919644D02*
X109700249Y-81691072D01*
X109700249Y-81691072D02*
X109738345Y-81614882D01*
X109738345Y-81614882D02*
X109776440Y-81576787D01*
X109776440Y-81576787D02*
X109852630Y-81538691D01*
X109852630Y-81538691D02*
X109966916Y-81538691D01*
X109966916Y-81538691D02*
X110043107Y-81576787D01*
X110043107Y-81576787D02*
X110081202Y-81614882D01*
X110081202Y-81614882D02*
X110119297Y-81691072D01*
X110119297Y-81691072D02*
X110119297Y-81919644D01*
X110119297Y-81919644D02*
X110081202Y-81995834D01*
X110081202Y-81995834D02*
X110043107Y-82033930D01*
X110043107Y-82033930D02*
X109966916Y-82072025D01*
X109966916Y-82072025D02*
X109852630Y-82072025D01*
X110805012Y-81538691D02*
X110805012Y-82072025D01*
X110462155Y-81538691D02*
X110462155Y-81957739D01*
X110462155Y-81957739D02*
X110500250Y-82033930D01*
X110500250Y-82033930D02*
X110576440Y-82072025D01*
X110576440Y-82072025D02*
X110690726Y-82072025D01*
X110690726Y-82072025D02*
X110766917Y-82033930D01*
X110766917Y-82033930D02*
X110805012Y-81995834D01*
X111109774Y-81538691D02*
X111528822Y-81538691D01*
X111528822Y-81538691D02*
X111109774Y-82072025D01*
X111109774Y-82072025D02*
X111528822Y-82072025D01*
X112176441Y-82072025D02*
X112176441Y-81652977D01*
X112176441Y-81652977D02*
X112138346Y-81576787D01*
X112138346Y-81576787D02*
X112062155Y-81538691D01*
X112062155Y-81538691D02*
X111909774Y-81538691D01*
X111909774Y-81538691D02*
X111833584Y-81576787D01*
X112176441Y-82033930D02*
X112100250Y-82072025D01*
X112100250Y-82072025D02*
X111909774Y-82072025D01*
X111909774Y-82072025D02*
X111833584Y-82033930D01*
X111833584Y-82033930D02*
X111795488Y-81957739D01*
X111795488Y-81957739D02*
X111795488Y-81881549D01*
X111795488Y-81881549D02*
X111833584Y-81805358D01*
X111833584Y-81805358D02*
X111909774Y-81767263D01*
X111909774Y-81767263D02*
X112100250Y-81767263D01*
X112100250Y-81767263D02*
X112176441Y-81729168D01*
X112557394Y-82072025D02*
X112557394Y-81538691D01*
X112557394Y-81272025D02*
X112519298Y-81310120D01*
X112519298Y-81310120D02*
X112557394Y-81348215D01*
X112557394Y-81348215D02*
X112595489Y-81310120D01*
X112595489Y-81310120D02*
X112557394Y-81272025D01*
X112557394Y-81272025D02*
X112557394Y-81348215D01*
X113243108Y-82033930D02*
X113166917Y-82072025D01*
X113166917Y-82072025D02*
X113014536Y-82072025D01*
X113014536Y-82072025D02*
X112938346Y-82033930D01*
X112938346Y-82033930D02*
X112900250Y-81957739D01*
X112900250Y-81957739D02*
X112900250Y-81652977D01*
X112900250Y-81652977D02*
X112938346Y-81576787D01*
X112938346Y-81576787D02*
X113014536Y-81538691D01*
X113014536Y-81538691D02*
X113166917Y-81538691D01*
X113166917Y-81538691D02*
X113243108Y-81576787D01*
X113243108Y-81576787D02*
X113281203Y-81652977D01*
X113281203Y-81652977D02*
X113281203Y-81729168D01*
X113281203Y-81729168D02*
X112900250Y-81805358D01*
X113966917Y-82072025D02*
X113966917Y-81272025D01*
X113966917Y-82033930D02*
X113890726Y-82072025D01*
X113890726Y-82072025D02*
X113738345Y-82072025D01*
X113738345Y-82072025D02*
X113662155Y-82033930D01*
X113662155Y-82033930D02*
X113624060Y-81995834D01*
X113624060Y-81995834D02*
X113585964Y-81919644D01*
X113585964Y-81919644D02*
X113585964Y-81691072D01*
X113585964Y-81691072D02*
X113624060Y-81614882D01*
X113624060Y-81614882D02*
X113662155Y-81576787D01*
X113662155Y-81576787D02*
X113738345Y-81538691D01*
X113738345Y-81538691D02*
X113890726Y-81538691D01*
X113890726Y-81538691D02*
X113966917Y-81576787D01*
X105243107Y-83359980D02*
X105243107Y-82559980D01*
X105700250Y-83359980D02*
X105357392Y-82902837D01*
X105700250Y-82559980D02*
X105243107Y-83017123D01*
X105928821Y-82559980D02*
X106385964Y-82559980D01*
X106157392Y-83359980D02*
X106157392Y-82559980D01*
X106652631Y-83359980D02*
X106652631Y-82559980D01*
X106652631Y-82940932D02*
X107109774Y-82940932D01*
X107109774Y-83359980D02*
X107109774Y-82559980D01*
X108366916Y-82940932D02*
X108100250Y-82940932D01*
X108100250Y-83359980D02*
X108100250Y-82559980D01*
X108100250Y-82559980D02*
X108481202Y-82559980D01*
X108747868Y-83321885D02*
X108862154Y-83359980D01*
X108862154Y-83359980D02*
X109052630Y-83359980D01*
X109052630Y-83359980D02*
X109128821Y-83321885D01*
X109128821Y-83321885D02*
X109166916Y-83283789D01*
X109166916Y-83283789D02*
X109205011Y-83207599D01*
X109205011Y-83207599D02*
X109205011Y-83131408D01*
X109205011Y-83131408D02*
X109166916Y-83055218D01*
X109166916Y-83055218D02*
X109128821Y-83017123D01*
X109128821Y-83017123D02*
X109052630Y-82979027D01*
X109052630Y-82979027D02*
X108900249Y-82940932D01*
X108900249Y-82940932D02*
X108824059Y-82902837D01*
X108824059Y-82902837D02*
X108785964Y-82864742D01*
X108785964Y-82864742D02*
X108747868Y-82788551D01*
X108747868Y-82788551D02*
X108747868Y-82712361D01*
X108747868Y-82712361D02*
X108785964Y-82636170D01*
X108785964Y-82636170D02*
X108824059Y-82598075D01*
X108824059Y-82598075D02*
X108900249Y-82559980D01*
X108900249Y-82559980D02*
X109090726Y-82559980D01*
X109090726Y-82559980D02*
X109205011Y-82598075D01*
X110119297Y-82636170D02*
X110157393Y-82598075D01*
X110157393Y-82598075D02*
X110233583Y-82559980D01*
X110233583Y-82559980D02*
X110424059Y-82559980D01*
X110424059Y-82559980D02*
X110500250Y-82598075D01*
X110500250Y-82598075D02*
X110538345Y-82636170D01*
X110538345Y-82636170D02*
X110576440Y-82712361D01*
X110576440Y-82712361D02*
X110576440Y-82788551D01*
X110576440Y-82788551D02*
X110538345Y-82902837D01*
X110538345Y-82902837D02*
X110081202Y-83359980D01*
X110081202Y-83359980D02*
X110576440Y-83359980D01*
X111071679Y-82559980D02*
X111147869Y-82559980D01*
X111147869Y-82559980D02*
X111224060Y-82598075D01*
X111224060Y-82598075D02*
X111262155Y-82636170D01*
X111262155Y-82636170D02*
X111300250Y-82712361D01*
X111300250Y-82712361D02*
X111338345Y-82864742D01*
X111338345Y-82864742D02*
X111338345Y-83055218D01*
X111338345Y-83055218D02*
X111300250Y-83207599D01*
X111300250Y-83207599D02*
X111262155Y-83283789D01*
X111262155Y-83283789D02*
X111224060Y-83321885D01*
X111224060Y-83321885D02*
X111147869Y-83359980D01*
X111147869Y-83359980D02*
X111071679Y-83359980D01*
X111071679Y-83359980D02*
X110995488Y-83321885D01*
X110995488Y-83321885D02*
X110957393Y-83283789D01*
X110957393Y-83283789D02*
X110919298Y-83207599D01*
X110919298Y-83207599D02*
X110881202Y-83055218D01*
X110881202Y-83055218D02*
X110881202Y-82864742D01*
X110881202Y-82864742D02*
X110919298Y-82712361D01*
X110919298Y-82712361D02*
X110957393Y-82636170D01*
X110957393Y-82636170D02*
X110995488Y-82598075D01*
X110995488Y-82598075D02*
X111071679Y-82559980D01*
X111643107Y-82636170D02*
X111681203Y-82598075D01*
X111681203Y-82598075D02*
X111757393Y-82559980D01*
X111757393Y-82559980D02*
X111947869Y-82559980D01*
X111947869Y-82559980D02*
X112024060Y-82598075D01*
X112024060Y-82598075D02*
X112062155Y-82636170D01*
X112062155Y-82636170D02*
X112100250Y-82712361D01*
X112100250Y-82712361D02*
X112100250Y-82788551D01*
X112100250Y-82788551D02*
X112062155Y-82902837D01*
X112062155Y-82902837D02*
X111605012Y-83359980D01*
X111605012Y-83359980D02*
X112100250Y-83359980D01*
X112824060Y-82559980D02*
X112443108Y-82559980D01*
X112443108Y-82559980D02*
X112405012Y-82940932D01*
X112405012Y-82940932D02*
X112443108Y-82902837D01*
X112443108Y-82902837D02*
X112519298Y-82864742D01*
X112519298Y-82864742D02*
X112709774Y-82864742D01*
X112709774Y-82864742D02*
X112785965Y-82902837D01*
X112785965Y-82902837D02*
X112824060Y-82940932D01*
X112824060Y-82940932D02*
X112862155Y-83017123D01*
X112862155Y-83017123D02*
X112862155Y-83207599D01*
X112862155Y-83207599D02*
X112824060Y-83283789D01*
X112824060Y-83283789D02*
X112785965Y-83321885D01*
X112785965Y-83321885D02*
X112709774Y-83359980D01*
X112709774Y-83359980D02*
X112519298Y-83359980D01*
X112519298Y-83359980D02*
X112443108Y-83321885D01*
X112443108Y-83321885D02*
X112405012Y-83283789D01*
D11*
X117000000Y-62485000D02*
X119460000Y-62485000D01*
X119460000Y-61015000D02*
X117000000Y-61015000D01*
X119460000Y-62485000D02*
X119460000Y-61015000D01*
X111355000Y-67365580D02*
X111355000Y-67084420D01*
X112375000Y-67365580D02*
X112375000Y-67084420D01*
X117545276Y-62977500D02*
X118054724Y-62977500D01*
X117545276Y-64022500D02*
X118054724Y-64022500D01*
X105355000Y-70484420D02*
X105355000Y-70765580D01*
X106375000Y-70484420D02*
X106375000Y-70765580D01*
X134650000Y-71240000D02*
X134650000Y-74500000D01*
X136350000Y-71240000D02*
X134650000Y-71240000D01*
X136350000Y-71240000D02*
X136350000Y-74500000D01*
X106092500Y-77987742D02*
X106092500Y-78462258D01*
X107137500Y-77987742D02*
X107137500Y-78462258D01*
D12*
X120112500Y-66587500D02*
X120112500Y-75087500D01*
X120112500Y-75087500D02*
X131712500Y-75087500D01*
X131712500Y-66587500D02*
X120112500Y-66587500D01*
X131712500Y-75087500D02*
X131712500Y-66587500D01*
D11*
X117646267Y-72240000D02*
X117353733Y-72240000D01*
X117646267Y-73260000D02*
X117353733Y-73260000D01*
X109592500Y-66962742D02*
X109592500Y-67437258D01*
X110637500Y-66962742D02*
X110637500Y-67437258D01*
X107842500Y-67487258D02*
X107842500Y-67012742D01*
X108887500Y-67487258D02*
X108887500Y-67012742D01*
X117653733Y-57790000D02*
X117946267Y-57790000D01*
X117653733Y-58810000D02*
X117946267Y-58810000D01*
X117645276Y-64727500D02*
X118154724Y-64727500D01*
X117645276Y-65772500D02*
X118154724Y-65772500D01*
X111092500Y-78487258D02*
X111092500Y-78012742D01*
X112137500Y-78487258D02*
X112137500Y-78012742D01*
X119510000Y-73650000D02*
X116250000Y-73650000D01*
X119510000Y-75350000D02*
X116250000Y-75350000D01*
X119510000Y-75350000D02*
X119510000Y-73650000D01*
X132990000Y-72853733D02*
X132990000Y-73146267D01*
X134010000Y-72853733D02*
X134010000Y-73146267D01*
X132442500Y-59353733D02*
X132442500Y-59646267D01*
X133462500Y-59353733D02*
X133462500Y-59646267D01*
X116265000Y-66340000D02*
X116265000Y-68800000D01*
X117735000Y-66340000D02*
X116265000Y-66340000D01*
X117735000Y-68800000D02*
X117735000Y-66340000D01*
X132750000Y-67110000D02*
X132750000Y-63850000D01*
X132750000Y-67110000D02*
X134450000Y-67110000D01*
X134450000Y-67110000D02*
X134450000Y-63850000D01*
X106805000Y-72725000D02*
X106805000Y-70775000D01*
X106805000Y-72725000D02*
X106805000Y-74675000D01*
X111925000Y-72725000D02*
X111925000Y-70775000D01*
X111925000Y-72725000D02*
X111925000Y-74675000D01*
X106900000Y-75425000D02*
X106570000Y-75665000D01*
X106570000Y-75185000D01*
X106900000Y-75425000D01*
G36*
X106900000Y-75425000D02*
G01*
X106570000Y-75665000D01*
X106570000Y-75185000D01*
X106900000Y-75425000D01*
G37*
X112515000Y-69040000D02*
X112515000Y-72300000D01*
X114215000Y-69040000D02*
X112515000Y-69040000D01*
X114215000Y-69040000D02*
X114215000Y-72300000D01*
X134238748Y-67540000D02*
X134761252Y-67540000D01*
X134238748Y-68960000D02*
X134761252Y-68960000D01*
X136990000Y-59238748D02*
X136990000Y-59761252D01*
X138410000Y-59238748D02*
X138410000Y-59761252D01*
X109592500Y-78462258D02*
X109592500Y-77987742D01*
X110637500Y-78462258D02*
X110637500Y-77987742D01*
X136852500Y-71240000D02*
X136852500Y-74500000D01*
X138552500Y-71240000D02*
X136852500Y-71240000D01*
X138552500Y-71240000D02*
X138552500Y-74500000D01*
D12*
X128702500Y-89200000D02*
X128702500Y-75700000D01*
X128702500Y-89200000D02*
X138702500Y-89200000D01*
X138702500Y-75700000D02*
X128702500Y-75700000D01*
X138702500Y-89200000D02*
X138702500Y-75700000D01*
D13*
X137702500Y-78700000D02*
X136702500Y-79200000D01*
X137202500Y-78200000D01*
X137702500Y-78700000D01*
G36*
X137702500Y-78700000D02*
G01*
X136702500Y-79200000D01*
X137202500Y-78200000D01*
X137702500Y-78700000D01*
G37*
D11*
X117628733Y-59490000D02*
X117971267Y-59490000D01*
X117628733Y-60510000D02*
X117971267Y-60510000D01*
X113850000Y-61610000D02*
X113850000Y-58350000D01*
X113850000Y-61610000D02*
X115550000Y-61610000D01*
X115550000Y-61610000D02*
X115550000Y-58350000D01*
D12*
X120065000Y-57587500D02*
X120065000Y-66087500D01*
X120065000Y-66087500D02*
X131665000Y-66087500D01*
X131665000Y-57587500D02*
X120065000Y-57587500D01*
X131665000Y-66087500D02*
X131665000Y-57587500D01*
D11*
X134238748Y-69540000D02*
X134761252Y-69540000D01*
X134238748Y-70960000D02*
X134761252Y-70960000D01*
X107855000Y-78084420D02*
X107855000Y-78365580D01*
X108875000Y-78084420D02*
X108875000Y-78365580D01*
X114190000Y-63753733D02*
X114190000Y-64046267D01*
X115210000Y-63753733D02*
X115210000Y-64046267D01*
X134352500Y-57490000D02*
X134352500Y-60750000D01*
X136052500Y-57490000D02*
X134352500Y-57490000D01*
X136052500Y-57490000D02*
X136052500Y-60750000D01*
X112515000Y-77060000D02*
X112515000Y-73800000D01*
X112515000Y-77060000D02*
X114215000Y-77060000D01*
X114215000Y-77060000D02*
X114215000Y-73800000D01*
X113092500Y-67012742D02*
X113092500Y-67487258D01*
X114137500Y-67012742D02*
X114137500Y-67487258D01*
X117646267Y-70240000D02*
X117353733Y-70240000D01*
X117646267Y-71260000D02*
X117353733Y-71260000D01*
X118240000Y-68171267D02*
X118240000Y-67828733D01*
X119260000Y-68171267D02*
X119260000Y-67828733D01*
D12*
X114952500Y-89250000D02*
X114952500Y-75750000D01*
X114952500Y-89250000D02*
X127952500Y-89250000D01*
X127952500Y-75750000D02*
X114952500Y-75750000D01*
X127952500Y-89250000D02*
X127952500Y-75750000D01*
D13*
X126952500Y-78750000D02*
X125952500Y-79250000D01*
X126452500Y-78250000D01*
X126952500Y-78750000D01*
G36*
X126952500Y-78750000D02*
G01*
X125952500Y-79250000D01*
X126452500Y-78250000D01*
X126952500Y-78750000D01*
G37*
%LPC*%
D14*
X118675000Y-61750000D03*
X116925000Y-61750000D03*
D15*
X111865000Y-68000000D03*
X111865000Y-66450000D03*
D16*
X116887500Y-63500000D03*
X118712500Y-63500000D03*
D17*
X105865000Y-69850000D03*
X105865000Y-71400000D03*
D18*
X135500000Y-72000000D03*
X135500000Y-74500000D03*
D19*
X106615000Y-77400000D03*
X106615000Y-79050000D03*
D20*
X128452500Y-68587500D03*
X125912500Y-68587500D03*
X123372500Y-68587500D03*
D21*
X118362500Y-72750000D03*
X116637500Y-72750000D03*
D19*
X110115000Y-66375000D03*
X110115000Y-68025000D03*
D22*
X108000000Y-60000000D03*
D23*
X108365000Y-68075000D03*
X108365000Y-66425000D03*
D24*
X116937500Y-58300000D03*
X118662500Y-58300000D03*
D16*
X116987500Y-65250000D03*
X118812500Y-65250000D03*
D23*
X111615000Y-79075000D03*
X111615000Y-77425000D03*
D25*
X118750000Y-74500000D03*
X116250000Y-74500000D03*
D26*
X133500000Y-72137500D03*
X133500000Y-73862500D03*
X132952500Y-58637500D03*
X132952500Y-60362500D03*
D27*
X117000000Y-67125000D03*
X117000000Y-68875000D03*
D28*
X133600000Y-66350000D03*
X133600000Y-63850000D03*
D29*
X107460000Y-75200000D03*
X108730000Y-75200000D03*
X110000000Y-75200000D03*
X111270000Y-75200000D03*
X111270000Y-70250000D03*
X110000000Y-70250000D03*
X108730000Y-70250000D03*
X107460000Y-70250000D03*
D18*
X113365000Y-69800000D03*
X113365000Y-72300000D03*
D30*
X133475000Y-68250000D03*
X135525000Y-68250000D03*
D22*
X108500000Y-86250000D03*
D31*
X137700000Y-58475000D03*
X137700000Y-60525000D03*
D23*
X110115000Y-79050000D03*
X110115000Y-77400000D03*
D18*
X137702500Y-72000000D03*
X137702500Y-74500000D03*
D32*
X133702500Y-84500000D03*
D33*
X135202500Y-80200000D03*
X132202500Y-80200000D03*
X135202500Y-77200000D03*
X132202500Y-77200000D03*
D34*
X116925000Y-60000000D03*
X118675000Y-60000000D03*
D28*
X114700000Y-60850000D03*
X114700000Y-58350000D03*
D20*
X128405000Y-59587500D03*
X125865000Y-59587500D03*
X123325000Y-59587500D03*
D30*
X133475000Y-70250000D03*
X135525000Y-70250000D03*
D17*
X108365000Y-77450000D03*
X108365000Y-79000000D03*
D26*
X114700000Y-63037500D03*
X114700000Y-64762500D03*
D18*
X135202500Y-58250000D03*
X135202500Y-60750000D03*
D28*
X113365000Y-76300000D03*
X113365000Y-73800000D03*
D19*
X113615000Y-66425000D03*
X113615000Y-68075000D03*
D21*
X118362500Y-70750000D03*
X116637500Y-70750000D03*
D35*
X118750000Y-68875000D03*
X118750000Y-67125000D03*
D32*
X121452500Y-84550000D03*
D33*
X124452500Y-80250000D03*
X121452500Y-80250000D03*
X118452500Y-80250000D03*
X124452500Y-77250000D03*
X121452500Y-77250000D03*
X118452500Y-77250000D03*
%LPD*%
M02*
