M48
; DRILL file {KiCad 9.0.0} date 2025-06-17T18:49:16+0200
; FORMAT={-:-/ absolute / metric / decimal}
; #@! TF.CreationDate,2025-06-17T18:49:16+02:00
; #@! TF.GenerationSoftware,Kicad,Pcbnew,9.0.0
; #@! TF.FileFunction,Plated,1,2,PTH
FMAT,2
METRIC
; #@! TA.AperFunction,Plated,PTH,ViaDrill
T1C0.400
; #@! TA.AperFunction,Plated,PTH,ComponentDrill
T2C0.900
; #@! TA.AperFunction,Plated,PTH,ComponentDrill
T3C1.020
%
G90
G05
T1
X105.8Y-72.9
X106.02Y-64.37
X108.44Y-72.69
X108.92Y-65.67
X110.4Y-80.5
X110.83Y-72.72
X112.4Y-64.2
X113.4Y-84.1
X113.8Y-78.3
X114.5Y-67.0
X114.6Y-56.9
X114.7Y-75.1
X115.5Y-66.2
X116.98Y-84.93
X119.8Y-57.2
X121.51Y-62.25
X121.51Y-64.46
X123.91Y-64.4
X123.94Y-62.34
X125.49Y-85.21
X125.953Y-62.4
X126.0Y-64.4
X126.0Y-70.75
X127.4Y-77.5
X127.6Y-72.0
X128.3Y-62.4
X129.59Y-79.36
X129.7Y-73.7
X130.61Y-84.9
X130.7Y-62.4
X131.7Y-74.9
X135.7Y-62.9
X137.11Y-85.07
T2
X123.325Y-59.587
X123.372Y-68.587
X125.865Y-59.587
X125.912Y-68.587
X128.405Y-59.587
X128.452Y-68.587
T3
X118.453Y-77.25
X118.453Y-80.25
X121.453Y-77.25
X121.453Y-80.25
X124.453Y-77.25
X124.453Y-80.25
X132.202Y-77.2
X132.202Y-80.2
X135.202Y-77.2
X135.202Y-80.2
M30
